<?xml version="1.0" standalone="no"?>
<!DOCTYPE svg PUBLIC "-//W3C//DTD SVG 1.1//EN" "http://www.w3.org/Graphics/SVG/1.1/DTD/svg11.dtd" >
<svg xmlns="http://www.w3.org/2000/svg" xmlns:xlink="http://www.w3.org/1999/xlink" version="1.1">
<metadata>
Created by FontForge 20170731 at Thu Jan 21 14:57:48 2016
 By Aleksey,,,
Draconis (c) (Neale Davidson). 2016. All Rights Reserved
</metadata>
<defs>
<font id="Draconis-Bold" horiz-adv-x="800" >
  <font-face 
    font-family="Draconis"
    font-weight="700"
    font-stretch="normal"
    units-per-em="2048"
    panose-1="2 0 5 0 0 0 0 0 0 0"
    ascent="1638"
    descent="-410"
    x-height="1140"
    cap-height="1420"
    bbox="-112 -320 1520 1990"
    underline-thickness="150"
    underline-position="-442"
    unicode-range="U+001D-F002"
  />
<missing-glyph horiz-adv-x="1650" 
d="M0 200v1100q0 200 200 200h1100q200 0 200 -200v-1100q0 -200 -200 -200h-1100q-200 0 -200 200zM1475 201v1099q0 175 -175 175h-1100q-174 0 -175 -175v-1100q1 -175 175 -175h1101q174 0 174 176z" />
    <glyph glyph-name=".notdef" horiz-adv-x="1650" 
d="M0 200v1100q0 200 200 200h1100q200 0 200 -200v-1100q0 -200 -200 -200h-1100q-200 0 -200 200zM1475 201v1099q0 175 -175 175h-1100q-174 0 -175 -175v-1100q1 -175 175 -175h1101q174 0 174 176z" />
    <glyph glyph-name=".null" horiz-adv-x="0" 
 />
    <glyph glyph-name=".null" horiz-adv-x="0" 
 />
    <glyph glyph-name="nonmarkingreturn" horiz-adv-x="508" 
 />
    <glyph glyph-name="space" unicode=" " horiz-adv-x="600" 
 />
    <glyph glyph-name="space" unicode="&#xa0;" horiz-adv-x="600" 
 />
    <glyph glyph-name="exclam" unicode="!" horiz-adv-x="500" 
d="M302.5 227.5q42.5 -42.5 42.5 -102.5t-42.5 -102.5t-102.5 -42.5t-102.5 42.5t-42.5 102.5t42.5 102.5t102.5 42.5t102.5 -42.5zM370 700q0 -149 -47.5 -259.5t-122.5 -110.5t-122.5 110.5t-47.5 259.5v600q0 30 -50 30v90h440v-90q-50 0 -50 -30v-600z" />
    <glyph glyph-name="quotedbl" unicode="&#x22;" horiz-adv-x="650" 
d="M75 1234q-15 1 -52 39q-43 42 -43 102t42.5 102.5t102.5 42.5t102.5 -42.5t42.5 -102.5q0 -187 -224 -299l-77 77q92 62 106 81zM375 1234q-15 1 -52 39q-43 42 -43 102t42.5 102.5t102.5 42.5t102.5 -42.5t42.5 -102.5q0 -187 -224 -299l-77 77q92 62 106 81z" />
    <glyph glyph-name="numbersign" unicode="#" 
d="M380 430h-60v-200h-240v200h-100v240h100v160h-100v240h100v200h240v-200h60v200h240v-200h100v-240h-100v-160h100v-240h-100v-200h-240v200zM320 670h60v160h-60v-160z" />
    <glyph glyph-name="dollar" unicode="$" horiz-adv-x="750" 
d="M470 1428h6q39 0 80 24q63 -94 116 -308l-77 -78q-57 114 -95 114h-100q-89 0 -109.5 -29.5t-20.5 -75.5q0 -45 36 -88l280 -383q84 -108 84 -279q0 -152 -84 -259q-57 -72 -116 -93v-93h-240l1 87q-2 0 -11 1q-25 4 -46 4q-39 0 -80 -24q-63 94 -116 308l77 78
q57 -114 95 -114h100q89 0 109.5 29.5t20.5 75.5q0 45 -36 88l-280 383q-84 108 -84 279q0 152 85 260q76 98 165 107v78h240v-92z" />
    <glyph glyph-name="percent" unicode="%" horiz-adv-x="1200" 
d="M750 530q-7 0 -18.5 -35.5t-11.5 -94.5t11.5 -94.5t18.5 -35.5t18.5 35.5t11.5 94.5t-11.5 94.5t-18.5 35.5zM350 1130q-7 0 -18.5 -35.5t-11.5 -94.5t11.5 -94.5t18.5 -35.5t18.5 35.5t11.5 94.5t-11.5 94.5t-18.5 35.5zM398 631q-3 -1 -48 -1q-153 0 -261.5 108.5
t-108.5 261.5t108.5 261.5t261.5 108.5t262 -108q35 -36 39 -42l86 200h243l-278 -651q3 1 48 1q153 0 261.5 -108.5t108.5 -261.5t-108.5 -261.5t-261.5 -108.5t-261 109q-36 34 -40 41l-86 -200h-243z" />
    <glyph glyph-name="ampersand" unicode="&#x26;" horiz-adv-x="900" 
d="M380 630q-8 0 -34 -58t-26 -147q0 -103 25.5 -154t34.5 -51v410zM670 870q22 0 76 54l74 -37v-274l-74 -37q-54 54 -76 54v-410q18 0 75 114l77 -78q-53 -214 -116 -308q-43 25 -83 32h-223q-175 0 -297.5 130.5t-122.5 314.5t123 315q5 5 5 6l-2 -2q-76 100 -76 256
q0 174 108 297t262 123h23q40 7 83 32q63 -94 116 -308l-77 -78q-57 114 -95 114h-50q-6 0 -18 -42.5t-12 -112.5q0 -69 12 -112t18 -43q39 0 89 75h181v-75z" />
    <glyph glyph-name="quotesingle" unicode="'" horiz-adv-x="350" 
d="M75 1234q-15 1 -52 39q-43 42 -43 102t42.5 102.5t102.5 42.5t102.5 -42.5t42.5 -102.5q0 -187 -224 -299l-77 77q92 62 106 81z" />
    <glyph glyph-name="parenleft" unicode="(" horiz-adv-x="600" 
d="M450 1520h70v-240h-70q-46 0 -88 -166.5t-42 -413.5t42 -413.5t88 -166.5h70v-240h-70q-198 0 -334 242t-136 578t136 578t334 242z" />
    <glyph glyph-name="parenright" unicode=")" horiz-adv-x="600" 
d="M384 1278q136 -242 136 -578t-136 -578t-334 -242h-70v240h70q46 0 88 166.5t42 413.5t-42 413.5t-88 166.5h-70v240h70q198 0 334 -242z" />
    <glyph glyph-name="asterisk" unicode="*" 
d="M470 1266l136 44l77 -40l37 -111l-40 -77l-136 -45l84 -116l-14 -86l-94 -69l-86 15l-84 115l-84 -115l-86 -15l-94 69l-14 86l84 116l-136 45l-40 77l37 111l77 40l136 -44v142l62 62h116l62 -62v-142z" />
    <glyph glyph-name="plus" unicode="+" 
d="M230 630h-250v240h250v250h240v-250h250v-240h-250v-250h-240v250z" />
    <glyph glyph-name="comma" unicode="," horiz-adv-x="350" 
d="M75 -16q-15 1 -52 39q-43 42 -43 102t42.5 102.5t102.5 42.5t102.5 -42.5t42.5 -102.5q0 -187 -224 -299l-77 77q92 62 106 81z" />
    <glyph glyph-name="hyphen" unicode="-" 
d="M-20 870h740v-240h-740v240z" />
    <glyph glyph-name="hyphen" unicode="&#xad;" 
d="M-20 870h740v-240h-740v240z" />
    <glyph glyph-name="period" unicode="." horiz-adv-x="350" 
d="M227.5 227.5q42.5 -42.5 42.5 -102.5t-42.5 -102.5t-102.5 -42.5t-102.5 42.5t-42.5 102.5t42.5 102.5t102.5 42.5t102.5 -42.5z" />
    <glyph glyph-name="slash" unicode="/" horiz-adv-x="900" 
d="M213 -20h-243l617 1440h243z" />
    <glyph glyph-name="zero" unicode="0" horiz-adv-x="850" 
d="M656 1207.5q114 -212.5 114 -507.5t-114 -507.5t-281 -212.5t-281 212.5t-114 507.5t114 507.5t281 212.5t281 -212.5zM375 1180q-25 0 -52.5 -137.5t-27.5 -342.5t27.5 -342.5t52.5 -137.5t52.5 137.5t27.5 342.5t-27.5 342.5t-52.5 137.5z" />
    <glyph glyph-name="one" unicode="1" horiz-adv-x="600" 
d="M180 1420h340v-90q-50 0 -50 -30v-1200q0 -30 50 -30v-90h-440v90q50 1 50 30v980h-150v140q112 1 156 44.5t44 155.5z" />
    <glyph glyph-name="two" unicode="2" horiz-adv-x="825" 
d="M263 1180h-82q-61 -41 -61 -128l-92 92q53 214 115 307q62 -31 257 -31q129 0 218 -116.5t89 -278.5t-88 -277q-251 -308 -324 -526v-2h299q61 41 61 128l92 -92q-53 -214 -115 -307q-62 31 -107 31h-483l-62 62v78q0 156 153 440q150 251 211 332q36 50 36 121
q0 19 -3 38v7q0 22 -16 46q-8 16 -17 29q-29 38 -81 47z" />
    <glyph glyph-name="three" unicode="3" horiz-adv-x="900" 
d="M292 630l-62 62v116l62 62h108q6 0 18 43t12 112q0 70 -12 112.5t-18 42.5h-200q-38 0 -95 -114l-77 78q53 214 116 308q43 -25 83 -32h173q154 0 262 -123t108 -297q0 -156 -76 -256l-2 2q0 -1 5 -6q123 -131 123 -315t-122.5 -314.5t-297.5 -130.5h-223q-40 -7 -83 -32
q-63 94 -116 308l77 78q57 -114 95 -114h250q29 0 54.5 51t25.5 129v25q0 89 -26 147t-54 58h-108z" />
    <glyph glyph-name="four" unicode="4" horiz-adv-x="950" 
d="M550 1419q45 1 107 32q62 -93 115 -307l-52 -52v-572h100v-240h-100v-180q0 -30 50 -30v-90h-440v90q50 0 50 30v180h-292l-110 219l358 921zM254 520h126v343z" />
    <glyph glyph-name="five" unicode="5" horiz-adv-x="750" 
d="M300 -20h-100q-45 0 -107 -31q-63 93 -115 307l92 92q0 -87 61 -128h169q4 0 17 71.5t13 183.5t-13 183.5t-17 71.5t-15 -64q-2 -10 -8 -36h-239l-59 117l104 673h292q70 0 132 31q62 -93 114 -303l-46 -93q-41 83 -83 125h-200l-35 -211q6 1 43 1q155 0 262.5 -145.5
t107.5 -349.5t-107.5 -349.5t-262.5 -145.5z" />
    <glyph glyph-name="six" unicode="6" horiz-adv-x="850" 
d="M375 730q-16 0 -35.5 -72t-19.5 -183t19.5 -183t35.5 -72t35.5 72t19.5 183t-19.5 183t-35.5 72zM-20 745h2q8 253 117 453q123 222 301 222q54 0 84 -13q21 -4 42 -4q39 0 80 24q63 -94 116 -308l-77 -78q-57 114 -95 114h-150q-25 0 -50 -130q-9 -39 -11 -56q4 1 36 1
q165 0 280 -145.5t115 -349.5t-115 -349.5t-280 -145.5t-280 145.5t-115 349.5v270z" />
    <glyph glyph-name="seven" unicode="7" horiz-adv-x="825" 
d="M369 1180h-238q-61 -41 -61 -128l-92 92q53 214 115 307q62 -30 107 -31h487l60 -120q-277 -530 -279 -1180h2q0 -50 50 -50v-90h-365q0 699 214 1200z" />
    <glyph glyph-name="eight" unicode="8" horiz-adv-x="900" 
d="M400 1180q-6 0 -18 -42.5t-12 -112.5q0 -69 12 -112t18 -43t18 43t12 112q0 70 -12 112.5t-18 42.5zM694 744l-2 2q0 -1 5 -6q123 -131 123 -315t-122.5 -314.5t-297.5 -130.5t-297.5 130.5t-122.5 314.5t123 315q5 5 5 6l-2 -2q-76 100 -76 256q0 174 108 297t262 123
t262 -123t108 -297q0 -156 -76 -256zM400 630q-28 0 -54 -58t-26 -147t26 -147t54 -58t54 58t26 147t-26 147t-54 58z" />
    <glyph glyph-name="nine" unicode="9" horiz-adv-x="850" 
d="M375 670q16 0 35.5 72t19.5 183t-19.5 183t-35.5 72t-35.5 -72t-19.5 -183t19.5 -183t35.5 -72zM770 655h-2q-8 -253 -117 -453q-123 -222 -301 -222q-54 0 -84 13q-21 4 -42 4q-39 0 -80 -24q-63 94 -116 308l77 78q57 -114 95 -114h150q25 0 50 130q9 39 11 56
q-4 -1 -36 -1q-165 0 -280 145.5t-115 349.5t115 349.5t280 145.5t280 -145.5t115 -349.5v-270z" />
    <glyph glyph-name="colon" unicode=":" horiz-adv-x="350" 
d="M227.5 227.5q42.5 -42.5 42.5 -102.5t-42.5 -102.5t-102.5 -42.5t-102.5 42.5t-42.5 102.5t42.5 102.5t102.5 42.5t102.5 -42.5zM227.5 827.5q42.5 -42.5 42.5 -102.5t-42.5 -102.5t-102.5 -42.5t-102.5 42.5t-42.5 102.5t42.5 102.5t102.5 42.5t102.5 -42.5z" />
    <glyph glyph-name="semicolon" unicode=";" horiz-adv-x="350" 
d="M75 -16q-15 1 -52 39q-43 42 -43 102t42.5 102.5t102.5 42.5t102.5 -42.5t42.5 -102.5q0 -187 -224 -299l-77 77q92 62 106 81zM227.5 827.5q42.5 -42.5 42.5 -102.5t-42.5 -102.5t-102.5 -42.5t-102.5 42.5t-42.5 102.5t42.5 102.5t102.5 42.5t102.5 -42.5z" />
    <glyph glyph-name="semicolon" unicode="&#x37e;" horiz-adv-x="350" 
d="M75 -16q-15 1 -52 39q-43 42 -43 102t42.5 102.5t102.5 42.5t102.5 -42.5t42.5 -102.5q0 -187 -224 -299l-77 77q92 62 106 81zM227.5 827.5q42.5 -42.5 42.5 -102.5t-42.5 -102.5t-102.5 -42.5t-102.5 42.5t-42.5 102.5t42.5 102.5t102.5 42.5t102.5 -42.5z" />
    <glyph glyph-name="less" unicode="&#x3c;" 
d="M284 750l436 -187v-243l-740 317v226l740 317v-243z" />
    <glyph glyph-name="equal" unicode="=" 
d="M-20 670h740v-240h-740v240zM-20 1070h740v-240h-740v240z" />
    <glyph glyph-name="greater" unicode="&#x3e;" 
d="M-20 937v243l740 -317v-226l-740 -317v243l436 187z" />
    <glyph glyph-name="question" unicode="?" horiz-adv-x="700" 
d="M377.5 227.5q42.5 -42.5 42.5 -102.5t-42.5 -102.5t-102.5 -42.5t-102.5 42.5t-42.5 102.5t42.5 102.5t102.5 42.5t102.5 -42.5zM213 1180h-82q-61 -41 -61 -128l-92 92q53 214 115 307q62 -31 257 -31q128 0 224 -116.5t96 -278.5t-89 -279q-137 -123 -157 -317
q4 -9 46 -9v-90h-356q16 378 180 563q36 49 36 120q0 19 -3 38v7q0 22 -16 46q-8 16 -17 29q-29 38 -81 47z" />
    <glyph glyph-name="at" unicode="@" horiz-adv-x="1000" 
d="M370 1081q49 37 145 39q-25 60 -65 60q-44 0 -80 -99zM550 880q-7 0 -18.5 -35.5t-11.5 -94.5t11.5 -94.5t18.5 -35.5t18.5 35.5t11.5 94.5t-11.5 94.5t-18.5 35.5zM367 421q37 -101 83 -101h150q32 0 77 80q-56 -20 -127 -20q-129 0 -183 41zM713 415l59 -59
q-53 -214 -116 -308q-41 24 -81 24l-126 8q-195 0 -332 197.5t-137 472.5t137 472.5t333 197.5t333 -197.5t137 -472.5v-370h-128l-52 51q-13 -9 -27 -16z" />
    <glyph glyph-name="A" unicode="A" horiz-adv-x="1000" 
d="M351 218l-21 -146q2 -2 40 -2v-90h-390v90q42 0 64 27l176 1231q-2 2 -40 2v90h540v-90q-38 0 -40 -2l176 -1231q22 -27 64 -27v-90h-390v90q38 0 40 2l-21 146q-56 -13 -99 -13t-99 13zM515 456l-65 452l-65 -452q26 -11 65 -11t65 11z" />
    <glyph glyph-name="B" unicode="B" horiz-adv-x="1000" 
d="M371 1180l-1 -310h30q29 0 54.5 44t25.5 111q0 68 -25.5 111.5t-54.5 43.5h-29zM400 220q74 0 127 60t53 145t-53 145t-127 60h-31l-1 -410h32zM-19 -20l-1 87q49 2 50 32v1202q-1 29 -50 29v90h420q174 0 297 -115.5t123 -279.5q0 -156 -95 -251q12 -8 42 -33
q153 -131 153 -316t-153 -315t-367 -130h-419z" />
    <glyph glyph-name="C" unicode="C" horiz-adv-x="850" 
d="M400 1445q52 0 131 -12q24 -5 45 -5q39 0 80 24q63 -94 116 -308l-77 -78q-57 114 -95 114h-200q-25 0 -52.5 -137.5t-27.5 -342.5t27.5 -342.5t52.5 -137.5h200q38 0 95 114l77 -78q-53 -214 -116 -308q-41 24 -80 24q-21 0 -45 -5q-79 -12 -131 -12q-178 0 -299 220
t-121 525t121 525t299 220z" />
    <glyph glyph-name="D" unicode="D" horiz-adv-x="950" 
d="M450 220q25 0 52.5 137.5t27.5 342.5t-27.5 342.5t-52.5 137.5l-80 1l1 -961h79zM450 -20h-470v90q49 0 50 30v1200q0 30 -50 30v90h470q178 0 299 -212.5t121 -507.5t-121 -507.5t-299 -212.5z" />
    <glyph glyph-name="E" unicode="E" horiz-adv-x="850" 
d="M-20 70q49 1 50 31v1199q0 31 -50 31v89h570q45 0 107 31q63 -93 115 -307l-92 -92q0 87 -61 128h-249v-310h180q42 0 96 54l74 -37v-274l-74 -37q-54 54 -96 54l-180 1v-411h249q61 41 61 128l92 -92q-52 -214 -115 -307q-62 31 -107 31h-570v90z" />
    <glyph glyph-name="F" unicode="F" horiz-adv-x="850" 
d="M-20 1420h570q45 0 107 31q63 -93 115 -307l-92 -92q0 87 -61 128h-249v-310h180q42 0 96 54l74 -37v-274l-74 -37q-54 54 -96 54l-180 1v-531q0 -30 50 -30v-90h-440v90q49 1 50 31v1199q0 31 -50 31v89z" />
    <glyph glyph-name="G" unicode="G" horiz-adv-x="900" 
d="M820 100q0 -30 50 -30v-90h-268q-45 -8 -71 -13q-79 -12 -131 -12q-178 0 -299 220t-121 525t121 525t299 220q52 0 131 -12q24 -5 45 -5q39 0 80 24q63 -94 116 -308l-77 -78q-57 114 -95 114h-200q-25 0 -52.5 -137.5t-27.5 -342.5t27.5 -342.5t52.5 -137.5h81l-1 430
q0 30 -50 30l1 90h439v-90q-50 0 -50 -30v-550z" />
    <glyph glyph-name="H" unicode="H" horiz-adv-x="1000" 
d="M370 630v-531q0 -29 50 -29v-90h-440v90q50 1 50 30v1200q0 30 -50 30l1 90h439v-90q-50 0 -50 -30v-430h160v430q0 30 -50 30l1 90h439v-90q-50 0 -50 -30v-1201q0 -29 50 -29v-90h-440v90q50 1 50 30v530h-160z" />
    <glyph glyph-name="I" unicode="I" horiz-adv-x="500" 
d="M-19 1420h439v-90q-50 0 -50 -30v-1201q0 -29 50 -29v-90h-440v90q50 1 50 30v1200q0 30 -50 30z" />
    <glyph glyph-name="J" unicode="J" horiz-adv-x="900" 
d="M242 370l29 29v-99q0 -33 23.5 -56.5t56.5 -23.5t56.5 23.5t23.5 56.5v1000q0 30 -50 31v89h439v-89q-49 -1 -49 -31v-950q0 -30 25 -30v-49q-132 -291 -446 -291q-188 0 -298 94l6 6h-78v90q50 0 50 36l109 164h103z" />
    <glyph glyph-name="K" unicode="K" horiz-adv-x="1000" 
d="M529 1280q-4 50 -49 50v90h120l270 1v-1h50v-90q-55 0 -88 -28l-161 -404q97 -542 196 -787q41 -41 103 -41v-90h-384q-82 208 -153 598l-63 -85v-393q0 -30 50 -30v-90h-440v90q50 0 50 30v1200q0 30 -50 30v90h440v-90q-50 0 -50 -30v-400z" />
    <glyph glyph-name="L" unicode="L" horiz-adv-x="850" 
d="M-20 70q49 1 50 31v1199q0 31 -50 31v89h440v-90q-50 0 -50 -30v-1080h249q61 41 61 128l92 -92q-52 -214 -115 -307q-62 31 -107 31h-570v90z" />
    <glyph glyph-name="M" unicode="M" horiz-adv-x="1300" 
d="M600 255l-230 460v-615q1 -30 50 -30v-90h-440v90q50 0 51 31l-1 1199q0 30 -50 30l1 90h390l-1 -115l230 -460l230 460l-1 115h390l1 -90q-50 0 -50 -30l-1 -1199q1 -31 51 -31v-90h-440v90q49 0 50 30l1 615z" />
    <glyph glyph-name="N" unicode="N" horiz-adv-x="1000" 
d="M530 1020v280q0 30 -50 30l1 90h439v-90q-50 0 -50 -30v-1201q0 -29 50 -29v-90h-440v90q50 1 50 30v295l-160 320v-616q0 -29 50 -29v-90h-440v90q50 1 50 30v1200q0 30 -50 30l1 90h331z" />
    <glyph glyph-name="O" unicode="O" horiz-adv-x="900" 
d="M400 1180q-25 0 -52.5 -137.5t-27.5 -342.5t27.5 -342.5t52.5 -137.5t52.5 137.5t27.5 342.5t-27.5 342.5t-52.5 137.5zM699 1225q121 -220 121 -525t-121 -525t-299 -220t-299 220t-121 525t121 525t299 220t299 -220z" />
    <glyph glyph-name="P" unicode="P" horiz-adv-x="900" 
d="M370 1180v-510h30q27 0 53.5 72.5t26.5 182.5t-26.5 182.5t-53.5 72.5h-30zM370 430v-331q0 -29 50 -29v-90h-440v90q50 1 50 30v1200q0 30 -50 30l1 90h419q175 0 297.5 -145.5t122.5 -349.5t-122.5 -349.5t-297.5 -145.5h-30z" />
    <glyph glyph-name="Q" unicode="Q" horiz-adv-x="900" 
d="M313 676q0 -429 78 -429h12q85 64 85 351v253q-30 313 -78 313h-19q-78 0 -78 -488zM499 -27q-41 -18 -99 -18q-178 0 -299 220t-121 525t121 525t299 220t299 -220t121 -525t-119 -522q-22 -40 -33 -55q6 -3 32 -3q30 0 30 50h98l-59 -176q-34 -114 -119 -114
q-57 0 -151 93z" />
    <glyph glyph-name="R" unicode="R" horiz-adv-x="900" 
d="M371 1180l-1 -410h30q28 0 54 58t26 147t-26 147t-54 58h-29zM413 530h-43v-431q0 -29 50 -29v-90h-440v90q50 1 50 30v1200q0 30 -50 30l1 90h419q175 0 297.5 -130.5t122.5 -314.5t-122 -314l-15 -15q75 -335 153 -551q30 -25 84 -25v-90h-331q-94 141 -176 550z" />
    <glyph glyph-name="S" unicode="S" horiz-adv-x="750" 
d="M64 796q-84 108 -84 279q0 152 85.5 261t209.5 109q77 0 156 -12q24 -5 45 -5q39 0 80 24q63 -94 116 -308l-77 -78q-57 114 -95 114h-100q-89 0 -109.5 -29.5t-20.5 -75.5q0 -45 36 -88l280 -383q84 -108 84 -279q0 -152 -85.5 -261t-209.5 -109q-77 0 -155 13
q-25 4 -46 4q-39 0 -80 -24q-63 94 -116 308l77 78q57 -114 95 -114h100q89 0 109.5 29.5t20.5 75.5q0 45 -36 88z" />
    <glyph glyph-name="T" unicode="T" horiz-adv-x="850" 
d="M200 1420h400q45 0 107 31q62 -93 115 -307l-89 -89q-5 79 -65 125h-98v-1080q0 -30 50 -30v-90h-440v90q50 0 50 30v1080h-99q-61 -41 -61 -128l-92 92q53 214 115 307q62 -31 107 -31z" />
    <glyph glyph-name="U" unicode="U" horiz-adv-x="1000" 
d="M530 300v1000q0 30 -50 31v89h439v-89q-49 -1 -49 -31v-950q0 -30 25 -30v-49q-132 -291 -446 -291q-312 0 -444 291v49q25 0 25 30v951q0 29 -52 29l4 90l438 1v-90q-50 -1 -50 -31v-1000q0 -33 23.5 -56.5t56.5 -23.5t56.5 23.5t23.5 56.5z" />
    <glyph glyph-name="V" unicode="V" horiz-adv-x="1000" 
d="M44 1303q-22 27 -64 27v90h390v-90q-38 0 -40 -2l120 -836l120 836q-2 2 -40 2v90h390v-90q-42 0 -64 -27l-189 -1323h-434z" />
    <glyph glyph-name="W" unicode="W" horiz-adv-x="1350" 
d="M625 276l-111 -296h-281l-189 1323q-22 27 -64 27v90h390v-90q-38 0 -40 -2l109 -758l147 400h78l147 -400l109 758q-2 2 -40 2v90h390v-90q-42 0 -64 -27l-189 -1323h-281z" />
    <glyph glyph-name="X" unicode="X" horiz-adv-x="950" 
d="M425 432l-109 -452h-336v90q49 0 73 17l167 613l-167 613q-24 17 -73 17v90h336l109 -452l109 452h336v-90q-49 0 -73 -17l-167 -613l167 -613q24 -17 73 -17v-90h-336z" />
    <glyph glyph-name="Y" unicode="Y" horiz-adv-x="1000" 
d="M566 1331q-1 -1 -36 -1v90h390v-90q-51 0 -86 -60l-215 -773v-397q0 -30 51 -30v-90h-440v90q50 0 51 30v398l-217 774q-33 58 -84 58v90h70l271 1v-1h49v-90q-35 0 -36 1l115 -451z" />
    <glyph glyph-name="Z" unicode="Z" horiz-adv-x="825" 
d="M93 1451q60 -30 103 -30h4l462 -2l61 -117l-346 -1082h217q61 41 63 128l90 -92q-53 -214 -115 -307q-62 31 -107 31h-487l-60 119l369 1081h-216q-61 -41 -61 -128l-92 92q53 214 115 307z" />
    <glyph glyph-name="bracketleft" unicode="[" horiz-adv-x="600" 
d="M-20 -30q49 1 50 31v1399q0 31 -50 31v89h540v-240h-150v-1160h150v-240h-540v90z" />
    <glyph glyph-name="backslash" unicode="\" horiz-adv-x="900" 
d="M-30 1420h243l617 -1440h-243z" />
    <glyph glyph-name="bracketright" unicode="]" horiz-adv-x="600" 
d="M520 -120h-540v240h150v1160h-150v240h540v-89q-50 0 -50 -31v-1399q1 -30 50 -31v-90z" />
    <glyph glyph-name="asciicircum" unicode="^" horiz-adv-x="650" 
d="M275 1624l-62 -144h-243l167 390h276l167 -390h-243z" />
    <glyph glyph-name="underscore" unicode="_" horiz-adv-x="850" 
d="M-20 -80h790v-240h-790v240z" />
    <glyph glyph-name="grave" unicode="`" horiz-adv-x="550" 
d="M485 1480h-141l-406 290h373z" />
    <glyph glyph-name="a" unicode="a" 
d="M407 367l-47 330l-47 -330q16 -7 47 -7t47 7zM452 59l-16 110q-41 -9 -76 -9t-76 9l-16 -110q1 1 32 1v-80h-320v80q35 0 51 19l141 982q-1 -1 -32 -1v80h440v-80q-31 0 -32 1l141 -982q16 -19 51 -19v-80h-320v80q31 0 32 -1z" />
    <glyph glyph-name="b" unicode="b" 
d="M300 940v-240h20q21 0 40.5 33.5t19.5 86.5t-19.5 86.5t-40.5 33.5h-20zM320 180q57 0 98.5 47t41.5 113t-41.5 113t-98.5 47h-21v-320h21zM-18 -20l-3 77q40 2 41 22v962q0 19 -40 19v80h340q141 0 240.5 -93.5t99.5 -226.5q0 -126 -74 -200q6 -4 30 -24
q124 -106 124 -256t-123.5 -255t-296.5 -105h-338z" />
    <glyph glyph-name="c" unicode="c" horiz-adv-x="680" 
d="M320 1160q42 0 106 -10q18 -4 35 -4q30 0 65 21q53 -79 96 -253l-67 -68q-47 94 -75 94h-160q-17 0 -38.5 -108t-21.5 -272t21.5 -272t38.5 -108h160q28 0 75 94l67 -68q-43 -174 -96 -253q-35 21 -65 21q-17 0 -35 -4q-64 -10 -106 -10q-145 0 -242.5 177.5t-97.5 422.5
t97.5 422.5t242.5 177.5z" />
    <glyph glyph-name="d" unicode="d" horiz-adv-x="760" 
d="M360 180q17 0 38.5 108t21.5 272t-21.5 272t-38.5 108l-60 1l1 -761h59zM360 -20h-380v80q39 0 40 20v960q0 20 -40 20v80h380q145 0 242.5 -171.5t97.5 -408.5t-97.5 -408.5t-242.5 -171.5z" />
    <glyph glyph-name="e" unicode="e" horiz-adv-x="680" 
d="M-20 59q39 2 40 22v959q0 21 -40 21v79h460q35 0 87 26q53 -78 95 -252l-82 -82q0 77 -46 108h-194v-240h140q32 0 76 44l64 -32v-224l-64 -32q-44 44 -76 44l-140 1v-321h194q46 31 46 108l82 -82q-42 -174 -95 -252q-52 26 -87 26h-460v79z" />
    <glyph glyph-name="f" unicode="f" horiz-adv-x="679" 
d="M-20 1140h460q35 0 87 26q52 -78 95 -252l-82 -82q0 77 -46 108h-194v-240h140q32 0 76 44l64 -32v-224l-64 -32q-44 44 -76 44l-140 1v-421q0 -20 40 -20v-80h-360v80q39 0 40 20v960q0 21 -40 21v79z" />
    <glyph glyph-name="g" unicode="g" horiz-adv-x="720" 
d="M660 80q0 -20 40 -20v-80h-218q-36 -6 -56 -10q-64 -10 -106 -10q-145 0 -242.5 177.5t-97.5 422.5t97.5 422.5t242.5 177.5q42 0 106 -10q18 -4 35 -4q30 0 65 21q53 -79 96 -253l-67 -68q-47 94 -75 94h-160q-17 0 -38.5 -108t-21.5 -272t21.5 -272t38.5 -108h61
l-1 340q0 20 -41 20l2 80h359v-80q-40 0 -40 -20v-440z" />
    <glyph glyph-name="h" unicode="h" 
d="M300 500v-421q0 -19 40 -19v-80h-360v80q40 1 40 20v960q0 20 -41 20l2 80h359v-80q-40 0 -40 -20v-340h120v340q0 20 -41 20l2 80h359v-80q-40 0 -40 -20v-961q0 -19 40 -19v-80h-360v80q40 1 40 20v420h-120z" />
    <glyph glyph-name="i" unicode="i" horiz-adv-x="399" 
d="M-20 1140h360v-80q-40 0 -40 -20v-960q0 -20 40 -20v-80h-360v80q40 0 40 20v960q0 20 -40 20v80z" />
    <glyph glyph-name="j" unicode="j" horiz-adv-x="740" 
d="M192 300l29 29v-89q0 -25 17.5 -42.5t42.5 -17.5t42.5 17.5t17.5 42.5v800q0 20 -40 21v79h359v-78q-39 -1 -39 -22v-760q0 -20 20 -20v-44q-107 -236 -361 -236q-152 0 -238 74l6 6h-68v80q40 0 40 26l89 134h83z" />
    <glyph glyph-name="k" unicode="k" 
d="M419 1025q-3 35 -39 35v80h100l220 1v-1h40v-80q-47 0 -71 -21l-128 -321q77 -432 156 -627q31 -31 83 -31v-80h-314q-67 169 -122 473l-44 -60v-313q0 -20 40 -20v-80h-360v80q40 0 40 20v960q0 20 -40 20v80h360v-80q-40 0 -40 -20v-300z" />
    <glyph glyph-name="l" unicode="l" horiz-adv-x="680" 
d="M-20 59q39 2 40 22v959q0 21 -40 21v79h360v-80q-40 0 -40 -20v-860h194q46 31 46 108l82 -82q-42 -174 -95 -252q-52 26 -87 26h-460v79z" />
    <glyph glyph-name="m" unicode="m" horiz-adv-x="1040" 
d="M480 195l-180 360v-475q1 -20 40 -20v-80h-360v80q40 0 41 21l-1 959q0 20 -41 20l2 80h320l-1 -95l180 -360l180 360l-1 95h320l2 -80q-41 0 -41 -20l-1 -959q1 -21 41 -21v-80h-360v80q39 0 40 20l1 475z" />
    <glyph glyph-name="n" unicode="n" 
d="M420 831v209q0 20 -41 20l2 80h359v-80q-40 0 -40 -20v-961q0 -19 40 -19v-80h-360v80q40 1 40 20v235l-120 240v-476q0 -19 40 -19v-80h-360v80q40 1 40 20v960q0 20 -41 20l2 80h271z" />
    <glyph glyph-name="o" unicode="o" horiz-adv-x="680" 
d="M320 940q-17 0 -38.5 -108t-21.5 -272t21.5 -272t38.5 -108t38.5 108t21.5 272t-21.5 272t-38.5 108zM562.5 982.5q97.5 -177.5 97.5 -422.5t-97.5 -422.5t-242.5 -177.5t-242.5 177.5t-97.5 422.5t97.5 422.5t242.5 177.5t242.5 -177.5z" />
    <glyph glyph-name="p" unicode="p" horiz-adv-x="720" 
d="M300 940v-400h20q19 0 39.5 56.5t20.5 143.5t-20.5 143.5t-39.5 56.5h-20zM300 340v-261q0 -19 40 -19v-80h-360v80q40 1 40 20v960q0 20 -41 20l2 80h339q142 0 241 -117.5t99 -282.5t-99 -282.5t-241 -117.5h-20z" />
    <glyph glyph-name="q" unicode="q" horiz-adv-x="740" 
d="M254 541q0 -339 59 -339h8q65 49 65 276v203q-23 246 -58 246h-15q-59 0 -59 -386zM398 -26q-31 -14 -78 -14q-145 0 -242.5 177.5t-97.5 422.5t97.5 422.5t242.5 177.5t242.5 -177.5t97.5 -422.5t-96 -419q-17 -33 -24 -41h20q20 0 20 40h88l-49 -146q-28 -94 -99 -94
q-47 0 -122 74z" />
    <glyph glyph-name="r" unicode="r" horiz-adv-x="720" 
d="M300 940v-320h20q20 0 40 44.5t20 115.5t-20 115.5t-40 44.5h-20zM327 419q2 0 2 1h-29v-341q0 -19 40 -19v-80h-360v80q40 1 40 20v960q0 20 -41 20l2 80h339q142 0 241 -105.5t99 -254.5t-99 -253q-8 -11 -10 -12q60 -265 121 -437q22 -18 68 -18v-80h-271
q-77 115 -142 439z" />
    <glyph glyph-name="s" unicode="s" horiz-adv-x="600" 
d="M48 634q-68 88 -68 226q0 123 69.5 211.5t170.5 88.5q62 0 126 -10q18 -4 35 -4q30 0 65 21q53 -79 96 -253l-67 -68q-47 94 -75 94h-80q-69 0 -84.5 -22t-15.5 -58q0 -35 28 -68l224 -306q68 -88 68 -226q0 -123 -69.5 -211.5t-170.5 -88.5q-62 0 -126 10q-18 4 -35 4
q-30 0 -65 -21q-53 79 -96 253l67 68q47 -94 75 -94h80q69 0 84.5 22t15.5 58q0 35 -28 68z" />
    <glyph glyph-name="t" unicode="t" horiz-adv-x="680" 
d="M160 1140h320q35 0 87 26q52 -78 95 -252l-79 -80q-4 71 -50 106h-73v-860q0 -20 40 -20v-80h-360v80q40 0 40 20v860h-74q-46 -31 -46 -108l-82 82q43 174 95 252q52 -26 87 -26z" />
    <glyph glyph-name="u" unicode="u" 
d="M420 240v800q0 20 -40 21v79h359v-78q-39 -1 -39 -22v-760q0 -20 20 -20v-44q-107 -236 -361 -236q-252 0 -359 236v44q20 0 20 20v761q0 19 -42 19l4 80l358 1v-80q-40 -1 -40 -21v-800q0 -25 17.5 -42.5t42.5 -17.5t42.5 17.5t17.5 42.5z" />
    <glyph glyph-name="v" unicode="v" horiz-adv-x="820" 
d="M452 1061q-1 -1 -32 -1v80h320v-80q-35 0 -51 -19l-152 -1061h-354l-152 1061q-16 19 -51 19v80h320v-80q-31 0 -32 1l92 -639z" />
    <glyph glyph-name="w" unicode="w" horiz-adv-x="1100" 
d="M732 1061q-1 -1 -32 -1v80h320v-80q-35 0 -51 -19l-152 -1061h-231l-86 230l-86 -230h-231l-152 1061q-16 19 -51 19v80h320v-80q-31 0 -32 1l85 -589l113 308h68l113 -308z" />
    <glyph glyph-name="x" unicode="x" horiz-adv-x="780" 
d="M340 329l-84 -349h-276v80q42 0 59 12l133 488l-133 488q-17 12 -59 12v80h276l84 -349l84 349h276v-80q-42 0 -59 -12l-133 -488l133 -488q17 -12 59 -12v-80h-276z" />
    <glyph glyph-name="y" unicode="y" 
d="M449 1062q-4 -2 -29 -2v80h320v-80q-43 0 -69 -46l-172 -617v-317q0 -20 41 -20v-80h-360v80q40 0 41 20v318l-173 618q-26 44 -68 44v80h60l221 1v-1h39v-80q-25 0 -29 2l88 -342z" />
    <glyph glyph-name="z" unicode="z" horiz-adv-x="680" 
d="M73 1166q52 -26 87 -26l372 -1l50 -97l-275 -862h167q46 31 46 108l82 -82q-43 -174 -95 -252q-52 26 -87 26h-392l-50 99l294 861h-166q-46 -31 -46 -108l-82 82q43 174 95 252z" />
    <glyph glyph-name="braceleft" unicode="{" horiz-adv-x="600" 
d="M80 375q0 89 -26 147t-74 58v240q48 0 74 58t26 147v50q0 184 122.5 314.5t317.5 130.5v-240q-48 0 -74 -58t-26 -147v-50q0 -184 -122 -314l-11 -11l10 -10q123 -131 123 -315v-50q0 -89 26 -147t74 -58v-240q-195 0 -317.5 130.5t-122.5 314.5v50z" />
    <glyph glyph-name="bar" unicode="|" horiz-adv-x="400" 
d="M320 1520v-1640h-340v1640h340z" />
    <glyph glyph-name="braceright" unicode="}" horiz-adv-x="600" 
d="M420 325q0 -184 -122.5 -314.5t-317.5 -130.5v240q48 0 74 58t26 147v50q0 184 123 315l10 10l-11 11q-122 130 -122 314v50q0 89 -26 147t-74 58v240q195 0 317.5 -130.5t122.5 -314.5v-50q0 -89 26 -147t74 -58v-240q-48 0 -74 -58t-26 -147v-50z" />
    <glyph glyph-name="asciitilde" unicode="~" horiz-adv-x="700" 
d="M620 1985v-287q-50 -99 -97 -135t-95 -36q-50 0 -135 61.5t-121 61.5q-30 0 -66.5 -32t-125.5 -210v287q50 100 97.5 136.5t94.5 36.5q53 0 138 -62.5t118 -62.5q30 0 66.5 32t125.5 210z" />
    <glyph glyph-name="exclamdown" unicode="&#xa1;" horiz-adv-x="500" 
d="M97.5 1172.5q-42.5 42.5 -42.5 102.5t42.5 102.5t102.5 42.5t102.5 -42.5t42.5 -102.5t-42.5 -102.5t-102.5 -42.5t-102.5 42.5zM30 700q0 149 47.5 259.5t122.5 110.5t122.5 -110.5t47.5 -259.5v-600q0 -30 50 -30v-90h-440v90q50 0 50 30v600z" />
    <glyph glyph-name="cent" unicode="&#xa2;" horiz-adv-x="850" 
d="M280 1150v170h240v-136q2 0 11 -1q24 -5 45 -5q39 0 80 24q63 -94 116 -308l-77 -78q-57 114 -95 114h-200q-27 0 -53.5 -79.5t-26.5 -200.5t26.5 -200.5t53.5 -79.5h200q38 0 95 114l77 -78q-53 -214 -116 -308q-41 24 -80 24q-21 0 -45 -5q-9 -1 -11 -1v-136h-240v170
q-95 29 -179 135q-121 151 -121 365t121 366q84 105 179 134z" />
    <glyph glyph-name="sterling" unicode="&#xa3;" horiz-adv-x="950" 
d="M34 870q16 222 115 403q123 222 301 222q54 0 84 -13q21 -4 42 -4q39 0 80 24q63 -94 116 -308l-77 -78q-57 114 -95 114h-150q-25 0 -50 -130q-23 -108 -27 -230h347v-240h-350v-410h349q61 41 61 128l92 -92q-52 -214 -115 -307q-62 31 -107 31h-670v90q49 1 50 31v529
h-50v240h54z" />
    <glyph glyph-name="currency" unicode="&#xa4;" horiz-adv-x="950" 
d="M425 830q-7 0 -18.5 -35.5t-11.5 -94.5t11.5 -94.5t18.5 -35.5t18.5 35.5t11.5 94.5t-11.5 94.5t-18.5 35.5zM698 450l99 -363q24 -17 73 -17v-90h-336l-84 350h-50l-84 -350h-336v90q49 0 73 17l99 363q-97 99 -97 250t97 250l-99 363q-24 17 -73 17v90h336l84 -350h50
l84 350h336v-90q-49 0 -73 -17l-99 -363q97 -99 97 -250t-97 -250z" />
    <glyph glyph-name="yen" unicode="&#xa5;" horiz-adv-x="1000" 
d="M566 1331q-1 -1 -36 -1v90h390v-90q-51 0 -86 -60l-132 -473h118v-240h-185l-16 -60v-77h201v-240h-201v-80q0 -30 51 -30v-90h-440v90q50 0 51 30v80h-201v240h201v78l-16 59h-185v240h118l-134 475q-33 58 -84 58v90h70l271 1v-1h49v-90q-35 0 -36 1l115 -451z" />
    <glyph glyph-name="brokenbar" unicode="&#xa6;" horiz-adv-x="400" 
d="M-20 780v740h340v-740h-340zM320 620v-740h-340v740h340z" />
    <glyph glyph-name="section" unicode="&#xa7;" 
d="M350 855q-7 0 -18.5 -35.5t-11.5 -94.5t11.5 -94.5t18.5 -35.5t18.5 35.5t11.5 94.5t-11.5 94.5t-18.5 35.5zM642 496q78 -106 78 -271q0 -152 -85.5 -261t-209.5 -109q-77 0 -155 13q-25 4 -46 4q-39 0 -80 -24q-63 94 -116 308l77 78q57 -114 95 -114h100
q89 0 109.5 29.5t20.5 75.5q0 45 -36 88l-31 42h-13q-153 0 -261.5 108.5t-108.5 261.5q0 122 61 205q-61 91 -61 245q0 152 85.5 261t209.5 109q77 0 156 -12q24 -5 45 -5q39 0 80 24q63 -94 116 -308l-77 -78q-57 114 -95 114h-100q-89 0 -109.5 -29.5t-20.5 -75.5
q0 -45 36 -88l-4 5q18 3 48 3q153 0 261.5 -108.5t108.5 -261.5q0 -138 -78 -229z" />
    <glyph glyph-name="dieresis" unicode="&#xa8;" horiz-adv-x="650" 
d="M227.5 1727.5q42.5 -42.5 42.5 -102.5t-42.5 -102.5t-102.5 -42.5t-102.5 42.5t-42.5 102.5t42.5 102.5t102.5 42.5t102.5 -42.5zM527.5 1727.5q42.5 -42.5 42.5 -102.5t-42.5 -102.5t-102.5 -42.5t-102.5 42.5t-42.5 102.5t42.5 102.5t102.5 42.5t102.5 -42.5z" />
    <glyph glyph-name="copyright" unicode="&#xa9;" horiz-adv-x="750" 
d="M468 736q19 19 36 44q76 110 76 270t-76 270q-17 25 -36 44q16 -41 29 -95l-52 -53q-32 64 -45 64h-100q-4 0 -17 -64t-13 -166q0 -101 13 -165.5t17 -64.5h100q13 0 45 64l52 -53q-13 -54 -29 -95zM131 1296q-61 -103 -61 -246q0 -145 62 -248q-52 107 -52 248
q0 140 51 246zM670 1050q0 -192 -100 -331t-245 -139t-245 139t-100 331t100 331t245 139t245 -139t100 -331z" />
    <glyph glyph-name="ordfeminine" unicode="&#xaa;" horiz-adv-x="1650" 
d="M0 200v1100q0 200 200 200h1100q200 0 200 -200v-1100q0 -200 -200 -200h-1100q-200 0 -200 200zM1475 201v1099q0 175 -175 175h-1100q-174 0 -175 -175v-1100q1 -175 175 -175h1101q174 0 174 176z" />
    <glyph glyph-name="guillemotleft" unicode="&#xab;" horiz-adv-x="1400" 
d="M284 750l436 -187v-243l-740 317v226l740 317v-243zM884 750l436 -187v-243l-740 317v226l740 317v-243z" />
    <glyph glyph-name="logicalnot" unicode="&#xac;" horiz-adv-x="1650" 
d="M0 200v1100q0 200 200 200h1100q200 0 200 -200v-1100q0 -200 -200 -200h-1100q-200 0 -200 200zM1475 201v1099q0 175 -175 175h-1100q-174 0 -175 -175v-1100q1 -175 175 -175h1101q174 0 174 176z" />
    <glyph glyph-name="registered" unicode="&#xae;" horiz-adv-x="450" 
d="M405 680h9q-51 77 -90 274l5 1h-9v-205q0 -5 25 -5v-65h-100q12 -10 80 -10t80 10zM321 1280l-1 -185h5q8 0 19 25t11 68q0 42 -11 67t-19 25h-4zM478 1021q31 -139 52 -202q50 76 50 231q0 135 -54 234q19 -44 19 -96q0 -96 -64 -164zM464 1368q-62 62 -139 62
q-68 0 -80 -10h80q80 0 139 -52zM130 1295q-60 -104 -60 -245t60 -245v490zM587 745h8v-65h-56q-87 -100 -214 -100q-145 0 -245 139t-100 331t100 331t245 139t245 -139t100 -331q0 -175 -83 -305z" />
    <glyph glyph-name="macron" unicode="&#xaf;" horiz-adv-x="1650" 
d="M0 200v1100q0 200 200 200h1100q200 0 200 -200v-1100q0 -200 -200 -200h-1100q-200 0 -200 200zM1475 201v1099q0 175 -175 175h-1100q-174 0 -175 -175v-1100q1 -175 175 -175h1101q174 0 174 176z" />
    <glyph glyph-name="degree" unicode="&#xb0;" horiz-adv-x="674" 
d="M339 1352q-78 0 -133.5 -55t-55.5 -134t55 -133t134 -54t133 54t54 133t-54.5 134t-132.5 55zM339 1462q123 0 210 -87.5t87 -210.5q0 -122 -88 -210t-211 -88q-125 0 -211 87t-86 211t87.5 211t211.5 87z" />
    <glyph glyph-name="plusminus" unicode="&#xb1;" horiz-adv-x="1650" 
d="M0 200v1100q0 200 200 200h1100q200 0 200 -200v-1100q0 -200 -200 -200h-1100q-200 0 -200 200zM1475 201v1099q0 175 -175 175h-1100q-174 0 -175 -175v-1100q1 -175 175 -175h1101q174 0 174 176z" />
    <glyph glyph-name="uni00B2" unicode="&#xb2;" horiz-adv-x="1650" 
d="M0 200v1100q0 200 200 200h1100q200 0 200 -200v-1100q0 -200 -200 -200h-1100q-200 0 -200 200zM1475 201v1099q0 175 -175 175h-1100q-174 0 -175 -175v-1100q1 -175 175 -175h1101q174 0 174 176z" />
    <glyph glyph-name="uni00B3" unicode="&#xb3;" horiz-adv-x="1650" 
d="M0 200v1100q0 200 200 200h1100q200 0 200 -200v-1100q0 -200 -200 -200h-1100q-200 0 -200 200zM1475 201v1099q0 175 -175 175h-1100q-174 0 -175 -175v-1100q1 -175 175 -175h1101q174 0 174 176z" />
    <glyph glyph-name="acute" unicode="&#xb4;" horiz-adv-x="550" 
d="M139 1770h373l-406 -290h-141z" />
    <glyph glyph-name="mu" unicode="&#xb5;" horiz-adv-x="1000" 
d="M370 299q0 -32 24 -55q23 -24 56 -24t56.5 23.5t23.5 56.5v1000q0 30 -50 31v89h439v-89q-49 -1 -49 -31v-950q0 -30 25 -30v-49q-132 -291 -446 -291q-54 0 -79 4v-34q0 -30 50 -30v-90h-440v90q50 0 50 30v1351q0 29 -52 29l4 90l438 1v-90q-50 -1 -50 -31v-1001z" />
    <glyph glyph-name="paragraph" unicode="&#xb6;" horiz-adv-x="1024" 
d="M949 1455v-110h-127v-1365h-122v1365h-126v-1365h-124v739q-162 7 -269.5 107t-107.5 260q0 166 113.5 267.5t299.5 101.5h463z" />
    <glyph glyph-name="periodcentered" unicode="&#xb7;" horiz-adv-x="350" 
d="M227.5 827.5q42.5 -42.5 42.5 -102.5t-42.5 -102.5t-102.5 -42.5t-102.5 42.5t-42.5 102.5t42.5 102.5t102.5 42.5t102.5 -42.5z" />
    <glyph glyph-name="periodcentered" unicode="&#x2219;" horiz-adv-x="350" 
d="M227.5 827.5q42.5 -42.5 42.5 -102.5t-42.5 -102.5t-102.5 -42.5t-102.5 42.5t-42.5 102.5t42.5 102.5t102.5 42.5t102.5 -42.5z" />
    <glyph glyph-name="cedilla" unicode="&#xb8;" horiz-adv-x="500" 
d="M130 -20v240q132 0 211 -79t79 -191t-79 -191t-191 -79h-108l-62 62v116l62 62h108q13 0 21.5 8.5t8.5 21.5t-8.5 21.5t-41.5 8.5z" />
    <glyph glyph-name="uni00B9" unicode="&#xb9;" horiz-adv-x="1650" 
d="M0 200v1100q0 200 200 200h1100q200 0 200 -200v-1100q0 -200 -200 -200h-1100q-200 0 -200 200zM1475 201v1099q0 175 -175 175h-1100q-174 0 -175 -175v-1100q1 -175 175 -175h1101q174 0 174 176z" />
    <glyph glyph-name="ordmasculine" unicode="&#xba;" horiz-adv-x="1650" 
d="M0 200v1100q0 200 200 200h1100q200 0 200 -200v-1100q0 -200 -200 -200h-1100q-200 0 -200 200zM1475 201v1099q0 175 -175 175h-1100q-174 0 -175 -175v-1100q1 -175 175 -175h1101q174 0 174 176z" />
    <glyph glyph-name="guillemotright" unicode="&#xbb;" horiz-adv-x="1400" 
d="M580 937v243l740 -317v-226l-740 -317v243l436 187zM-20 937v243l740 -317v-226l-740 -317v243l436 187z" />
    <glyph glyph-name="onequarter" unicode="&#xbc;" horiz-adv-x="1650" 
d="M0 200v1100q0 200 200 200h1100q200 0 200 -200v-1100q0 -200 -200 -200h-1100q-200 0 -200 200zM1475 201v1099q0 175 -175 175h-1100q-174 0 -175 -175v-1100q1 -175 175 -175h1101q174 0 174 176z" />
    <glyph glyph-name="onehalf" unicode="&#xbd;" horiz-adv-x="1650" 
d="M0 200v1100q0 200 200 200h1100q200 0 200 -200v-1100q0 -200 -200 -200h-1100q-200 0 -200 200zM1475 201v1099q0 175 -175 175h-1100q-174 0 -175 -175v-1100q1 -175 175 -175h1101q174 0 174 176z" />
    <glyph glyph-name="threequarters" unicode="&#xbe;" horiz-adv-x="1650" 
d="M0 200v1100q0 200 200 200h1100q200 0 200 -200v-1100q0 -200 -200 -200h-1100q-200 0 -200 200zM1475 201v1099q0 175 -175 175h-1100q-174 0 -175 -175v-1100q1 -175 175 -175h1101q174 0 174 176z" />
    <glyph glyph-name="questiondown" unicode="&#xbf;" horiz-adv-x="700" 
d="M272.5 1172.5q-42.5 42.5 -42.5 102.5t42.5 102.5t102.5 42.5t102.5 -42.5t42.5 -102.5t-42.5 -102.5t-102.5 -42.5t-102.5 42.5zM437 220h82q61 41 61 128l92 -92q-53 -214 -115 -307q-62 31 -257 31q-128 0 -224 116.5t-96 278.5t89 279q137 123 157 317q-4 9 -46 9v90
h356q-16 -378 -180 -563q-36 -49 -36 -120q0 -19 3 -38v-7q0 -22 16 -46q8 -16 17 -29q29 -38 81 -47z" />
    <glyph glyph-name="Agrave" unicode="&#xc0;" horiz-adv-x="1000" 
d="M351 218l-21 -146q2 -2 40 -2v-90h-390v90q42 0 64 27l176 1231q-2 2 -40 2v90h540v-90q-38 0 -40 -2l176 -1231q22 -27 64 -27v-90h-390v90q38 0 40 2l-21 146q-56 -13 -99 -13t-99 13zM515 456l-65 452l-65 -452q26 -11 65 -11t65 11zM711 1480h-141l-406 290h373z" />
    <glyph glyph-name="Aacute" unicode="&#xc1;" horiz-adv-x="1000" 
d="M351 218l-21 -146q2 -2 40 -2v-90h-390v90q42 0 64 27l176 1231q-2 2 -40 2v90h540v-90q-38 0 -40 -2l176 -1231q22 -27 64 -27v-90h-390v90q38 0 40 2l-21 146q-56 -13 -99 -13t-99 13zM515 456l-65 452l-65 -452q26 -11 65 -11t65 11zM365 1770h373l-406 -290h-141z
" />
    <glyph glyph-name="Acircumflex" unicode="&#xc2;" horiz-adv-x="1000" 
d="M351 218l-21 -146q2 -2 40 -2v-90h-390v90q42 0 64 27l176 1231q-2 2 -40 2v90h540v-90q-38 0 -40 -2l176 -1231q22 -27 64 -27v-90h-390v90q38 0 40 2l-21 146q-56 -13 -99 -13t-99 13zM515 456l-65 452l-65 -452q26 -11 65 -11t65 11zM450 1624l-62 -144h-243l167 390
h276l167 -390h-243z" />
    <glyph glyph-name="Atilde" unicode="&#xc3;" horiz-adv-x="1000" 
d="M351 218l-21 -146q2 -2 40 -2v-90h-390v90q42 0 64 27l176 1231q-2 2 -40 2v90h540v-90q-38 0 -40 -2l176 -1231q22 -27 64 -27v-90h-390v90q38 0 40 2l-21 146q-56 -13 -99 -13t-99 13zM515 456l-65 452l-65 -452q26 -11 65 -11t65 11zM770 1990v-285q-50 -99 -98 -135
t-97 -36q-50 0 -136 61.5t-123 61.5q-31 0 -67.5 -32t-126.5 -208v285q51 100 98.5 136.5t95.5 36.5q53 0 139 -62.5t120 -62.5q32 0 68.5 32t126.5 208z" />
    <glyph glyph-name="Adieresis" unicode="&#xc4;" horiz-adv-x="1000" 
d="M351 218l-21 -146q2 -2 40 -2v-90h-390v90q42 0 64 27l176 1231q-2 2 -40 2v90h540v-90q-38 0 -40 -2l176 -1231q22 -27 64 -27v-90h-390v90q38 0 40 2l-21 146q-56 -13 -99 -13t-99 13zM515 456l-65 452l-65 -452q26 -11 65 -11t65 11zM402.5 1727.5
q42.5 -42.5 42.5 -102.5t-42.5 -102.5t-102.5 -42.5t-102.5 42.5t-42.5 102.5t42.5 102.5t102.5 42.5t102.5 -42.5zM702.5 1727.5q42.5 -42.5 42.5 -102.5t-42.5 -102.5t-102.5 -42.5t-102.5 42.5t-42.5 102.5t42.5 102.5t102.5 42.5t102.5 -42.5z" />
    <glyph glyph-name="Aring" unicode="&#xc5;" horiz-adv-x="1000" 
d="M351 218l-21 -146q2 -2 40 -2v-90h-390v90q42 0 64 27l176 1231q-2 2 -40 2v90h540v-90q-38 0 -40 -2l176 -1231q22 -27 64 -27v-90h-390v90q38 0 40 2l-21 146q-56 -13 -99 -13t-99 13zM515 456l-65 452l-65 -452q26 -11 65 -11t65 11zM606 1898q64 -72 64 -173
t-64 -173t-156 -72t-156 72t-64 173t64 173t156 72t156 -72zM450 1830q-7 0 -18.5 -28.5t-11.5 -76.5t11.5 -76.5t18.5 -28.5t18.5 28.5t11.5 76.5t-11.5 76.5t-18.5 28.5z" />
    <glyph glyph-name="AE" unicode="&#xc6;" horiz-adv-x="1325" 
d="M515 456l-65 452l-65 -452q26 -11 65 -11t65 11zM530 213q-41 -8 -80 -8q-43 0 -99 13l-21 -146q2 -2 40 -2v-90h-390v90q42 0 64 27l176 1231q-2 2 -40 2v90h870q45 0 107 31q63 -93 115 -307l-92 -92q0 87 -61 128h-249v-310h180q42 0 96 54l74 -37v-274l-74 -37
q-54 54 -96 54l-180 1v-411h249q61 41 61 128l92 -92q-52 -214 -115 -307q-62 31 -107 31h-570v90q49 1 50 31v112z" />
    <glyph glyph-name="Ccedilla" unicode="&#xc7;" horiz-adv-x="850" 
d="M380 -45q-161 5 -281 223q-119 217 -119 522t121 525t299 220q52 0 131 -12q24 -5 45 -5q39 0 80 24q63 -94 116 -308l-77 -78q-57 114 -95 114h-200q-25 0 -52.5 -137.5t-27.5 -342.5t27.5 -342.5t52.5 -137.5h200q38 0 95 114l77 -78q-53 -214 -116 -308l-35 21
q-1 0 -1 -19q0 -112 -79 -191t-191 -79h-108l-62 62v116l62 62h108q13 0 21.5 8.5t8.5 21.5v5z" />
    <glyph glyph-name="Egrave" unicode="&#xc8;" horiz-adv-x="850" 
d="M-20 70q49 1 50 31v1199q0 31 -50 31v89h570q45 0 107 31q63 -93 115 -307l-92 -92q0 87 -61 128h-249v-310h180q42 0 96 54l74 -37v-274l-74 -37q-54 54 -96 54l-180 1v-411h249q61 41 61 128l92 -92q-52 -214 -115 -307q-62 31 -107 31h-570v90zM635 1480h-141
l-406 290h373z" />
    <glyph glyph-name="Eacute" unicode="&#xc9;" horiz-adv-x="850" 
d="M-20 70q49 1 50 31v1199q0 31 -50 31v89h570q45 0 107 31q63 -93 115 -307l-92 -92q0 87 -61 128h-249v-310h180q42 0 96 54l74 -37v-274l-74 -37q-54 54 -96 54l-180 1v-411h249q61 41 61 128l92 -92q-52 -214 -115 -307q-62 31 -107 31h-570v90zM289 1770h373
l-406 -290h-141z" />
    <glyph glyph-name="Ecircumflex" unicode="&#xca;" horiz-adv-x="850" 
d="M-20 70q49 1 50 31v1199q0 31 -50 31v89h570q45 0 107 31q63 -93 115 -307l-92 -92q0 87 -61 128h-249v-310h180q42 0 96 54l74 -37v-274l-74 -37q-54 54 -96 54l-180 1v-411h249q61 41 61 128l92 -92q-52 -214 -115 -307q-62 31 -107 31h-570v90zM375 1624l-62 -144
h-243l167 390h276l167 -390h-243z" />
    <glyph glyph-name="Edieresis" unicode="&#xcb;" horiz-adv-x="850" 
d="M-20 70q49 1 50 31v1199q0 31 -50 31v89h570q45 0 107 31q63 -93 115 -307l-92 -92q0 87 -61 128h-249v-310h180q42 0 96 54l74 -37v-274l-74 -37q-54 54 -96 54l-180 1v-411h249q61 41 61 128l92 -92q-52 -214 -115 -307q-62 31 -107 31h-570v90zM327.5 1727.5
q42.5 -42.5 42.5 -102.5t-42.5 -102.5t-102.5 -42.5t-102.5 42.5t-42.5 102.5t42.5 102.5t102.5 42.5t102.5 -42.5zM627.5 1727.5q42.5 -42.5 42.5 -102.5t-42.5 -102.5t-102.5 -42.5t-102.5 42.5t-42.5 102.5t42.5 102.5t102.5 42.5t102.5 -42.5z" />
    <glyph glyph-name="Igrave" unicode="&#xcc;" horiz-adv-x="500" 
d="M-19 1420h439v-90q-50 0 -50 -30v-1201q0 -29 50 -29v-90h-440v90q50 1 50 30v1200q0 30 -50 30zM435 1480h-141l-406 290h373z" />
    <glyph glyph-name="Iacute" unicode="&#xcd;" horiz-adv-x="500" 
d="M-19 1420h439v-90q-50 0 -50 -30v-1201q0 -29 50 -29v-90h-440v90q50 1 50 30v1200q0 30 -50 30zM139 1770h373l-406 -290h-141z" />
    <glyph glyph-name="Icircumflex" unicode="&#xce;" horiz-adv-x="500" 
d="M-19 1420h439v-90q-50 0 -50 -30v-1201q0 -29 50 -29v-90h-440v90q50 1 50 30v1200q0 30 -50 30zM200 1624l-62 -144h-243l167 390h276l167 -390h-243z" />
    <glyph glyph-name="Idieresis" unicode="&#xcf;" horiz-adv-x="500" 
d="M-19 1420h439v-90q-50 0 -50 -30v-1201q0 -29 50 -29v-90h-440v90q50 1 50 30v1200q0 30 -50 30zM151.5 1727.5q42.5 -42.5 42.5 -102.5t-42.5 -102.5t-102.5 -42.5t-102.5 42.5t-42.5 102.5t42.5 102.5t102.5 42.5t102.5 -42.5zM451.5 1727.5q42.5 -42.5 42.5 -102.5
t-42.5 -102.5t-102.5 -42.5t-102.5 42.5t-42.5 102.5t42.5 102.5t102.5 42.5t102.5 -42.5z" />
    <glyph glyph-name="Eth" unicode="&#xd0;" horiz-adv-x="950" 
d="M30 1020v280q0 30 -50 30v90h470q178 0 299 -212.5t121 -507.5t-121 -507.5t-299 -212.5h-470v90q49 0 50 30v680h-50v240h50zM370 1020h100v-240h-100l1 -560h79q25 0 52.5 137.5t27.5 342.5t-27.5 342.5t-52.5 137.5l-80 1v-161z" />
    <glyph glyph-name="Ntilde" unicode="&#xd1;" horiz-adv-x="1000" 
d="M124 1420h188l218 -400v280q0 30 -50 30l1 90h439v-90q-50 0 -50 -30v-1201q0 -29 50 -29v-90h-440v90q50 1 50 30v295l-160 320v-616q0 -29 50 -29v-90h-440v90q50 1 50 30v1200q0 30 -50 30l1 90h141v282q51 100 98.5 136.5t95.5 36.5q53 0 139 -62.5t120 -62.5
q32 0 68.5 32t126.5 208v-285q-50 -99 -98 -135t-97 -36q-50 0 -136 61.5t-123 61.5q-31 0 -67 -32q-37 -32 -125 -205z" />
    <glyph glyph-name="Ograve" unicode="&#xd2;" horiz-adv-x="900" 
d="M400 1180q-25 0 -52.5 -137.5t-27.5 -342.5t27.5 -342.5t52.5 -137.5t52.5 137.5t27.5 342.5t-27.5 342.5t-52.5 137.5zM699 1225q121 -220 121 -525t-121 -525t-299 -220t-299 220t-121 525t121 525t299 220t299 -220zM660 1480h-141l-406 290h373z" />
    <glyph glyph-name="Oacute" unicode="&#xd3;" horiz-adv-x="900" 
d="M400 1180q-25 0 -52.5 -137.5t-27.5 -342.5t27.5 -342.5t52.5 -137.5t52.5 137.5t27.5 342.5t-27.5 342.5t-52.5 137.5zM699 1225q121 -220 121 -525t-121 -525t-299 -220t-299 220t-121 525t121 525t299 220t299 -220zM314 1770h373l-406 -290h-141z" />
    <glyph glyph-name="Ocircumflex" unicode="&#xd4;" horiz-adv-x="900" 
d="M400 1180q-25 0 -52.5 -137.5t-27.5 -342.5t27.5 -342.5t52.5 -137.5t52.5 137.5t27.5 342.5t-27.5 342.5t-52.5 137.5zM699 1225q121 -220 121 -525t-121 -525t-299 -220t-299 220t-121 525t121 525t299 220t299 -220zM400 1624l-62 -144h-243l167 390h276l167 -390
h-243z" />
    <glyph glyph-name="Otilde" unicode="&#xd5;" horiz-adv-x="900" 
d="M400 1180q-25 0 -52.5 -137.5t-27.5 -342.5t27.5 -342.5t52.5 -137.5t52.5 137.5t27.5 342.5t-27.5 342.5t-52.5 137.5zM699 1225q121 -220 121 -525t-121 -525t-299 -220t-299 220t-121 525t121 525t299 220t299 -220zM728 1990v-285q-50 -99 -98 -135t-97 -36
q-50 0 -136 61.5t-123 61.5q-31 0 -67.5 -32t-126.5 -208v285q51 100 98.5 136.5t95.5 36.5q53 0 139 -62.5t120 -62.5q32 0 68.5 32t126.5 208z" />
    <glyph glyph-name="Odieresis" unicode="&#xd6;" horiz-adv-x="900" 
d="M400 1180q-25 0 -52.5 -137.5t-27.5 -342.5t27.5 -342.5t52.5 -137.5t52.5 137.5t27.5 342.5t-27.5 342.5t-52.5 137.5zM699 1225q121 -220 121 -525t-121 -525t-299 -220t-299 220t-121 525t121 525t299 220t299 -220zM352.5 1727.5q42.5 -42.5 42.5 -102.5
t-42.5 -102.5t-102.5 -42.5t-102.5 42.5t-42.5 102.5t42.5 102.5t102.5 42.5t102.5 -42.5zM652.5 1727.5q42.5 -42.5 42.5 -102.5t-42.5 -102.5t-102.5 -42.5t-102.5 42.5t-42.5 102.5t42.5 102.5t102.5 42.5t102.5 -42.5z" />
    <glyph glyph-name="multiply" unicode="&#xd7;" 
d="M201 750l-238 370h298l89 -139l89 139h298l-238 -370l238 -370h-298l-89 139l-89 -139h-298z" />
    <glyph glyph-name="Oslash" unicode="&#xd8;" horiz-adv-x="900" 
d="M320 798l123 287q-22 95 -43 95q-25 0 -52.5 -137.5t-27.5 -244.5zM228 15l-15 -35h-243l105 246q-95 196 -95 474q0 305 121 525t299 220q106 0 172 -60l15 35h243l-105 -246q95 -196 95 -474q0 -305 -121 -525t-299 -220q-106 0 -172 60zM480 602l-123 -287
q22 -95 43 -95q25 0 52.5 137.5t27.5 244.5z" />
    <glyph glyph-name="Ugrave" unicode="&#xd9;" horiz-adv-x="1000" 
d="M530 300v1000q0 30 -50 31v89h439v-89q-49 -1 -49 -31v-950q0 -30 25 -30v-49q-132 -291 -446 -291q-312 0 -444 291v49q25 0 25 30v951q0 29 -52 29l4 90l438 1v-90q-50 -1 -50 -31v-1000q0 -33 23.5 -56.5t56.5 -23.5t56.5 23.5t23.5 56.5zM710 1480h-141l-406 290h373
z" />
    <glyph glyph-name="Uacute" unicode="&#xda;" horiz-adv-x="1000" 
d="M530 300v1000q0 30 -50 31v89h439v-89q-49 -1 -49 -31v-950q0 -30 25 -30v-49q-132 -291 -446 -291q-312 0 -444 291v49q25 0 25 30v951q0 29 -52 29l4 90l438 1v-90q-50 -1 -50 -31v-1000q0 -33 23.5 -56.5t56.5 -23.5t56.5 23.5t23.5 56.5zM364 1770h373l-406 -290
h-141z" />
    <glyph glyph-name="Ucircumflex" unicode="&#xdb;" horiz-adv-x="1000" 
d="M530 300v1000q0 30 -50 31v89h439v-89q-49 -1 -49 -31v-950q0 -30 25 -30v-49q-132 -291 -446 -291q-312 0 -444 291v49q25 0 25 30v951q0 29 -52 29l4 90l438 1v-90q-50 -1 -50 -31v-1000q0 -33 23.5 -56.5t56.5 -23.5t56.5 23.5t23.5 56.5zM450 1624l-62 -144h-243
l167 390h276l167 -390h-243z" />
    <glyph glyph-name="Udieresis" unicode="&#xdc;" horiz-adv-x="1000" 
d="M530 300v1000q0 30 -50 31v89h439v-89q-49 -1 -49 -31v-950q0 -30 25 -30v-49q-132 -291 -446 -291q-312 0 -444 291v49q25 0 25 30v951q0 29 -52 29l4 90l438 1v-90q-50 -1 -50 -31v-1000q0 -33 23.5 -56.5t56.5 -23.5t56.5 23.5t23.5 56.5zM402.5 1727.5
q42.5 -42.5 42.5 -102.5t-42.5 -102.5t-102.5 -42.5t-102.5 42.5t-42.5 102.5t42.5 102.5t102.5 42.5t102.5 -42.5zM702.5 1727.5q42.5 -42.5 42.5 -102.5t-42.5 -102.5t-102.5 -42.5t-102.5 42.5t-42.5 102.5t42.5 102.5t102.5 42.5t102.5 -42.5z" />
    <glyph glyph-name="Yacute" unicode="&#xdd;" horiz-adv-x="1000" 
d="M364 1770h373l-406 -290h-141zM566 1331q-1 -1 -36 -1v90h390v-90q-51 0 -86 -60l-215 -773v-397q0 -30 51 -30v-90h-440v90q50 0 51 30v398l-217 774q-33 58 -84 58v90h70l271 1v-1h49v-90q-35 0 -36 1l115 -451z" />
    <glyph glyph-name="Thorn" unicode="&#xde;" horiz-adv-x="900" 
d="M370 980v-510h30q27 0 53.5 72.5t26.5 182.5t-26.5 182.5t-53.5 72.5h-30zM370 230v-131q0 -29 50 -29v-90h-440v90q50 1 50 30v1200q0 30 -50 30l1 90h439v-90q-50 0 -50 -30v-80h30q175 0 297.5 -145.5t122.5 -349.5t-122.5 -349.5t-297.5 -145.5h-30z" />
    <glyph glyph-name="germandbls" unicode="&#xdf;" horiz-adv-x="1000" 
d="M500 1420q154 0 262 -123t108 -297q0 -156 -76 -256l-2 2q0 -1 5 -6q123 -131 123 -315t-122.5 -314.5t-305.5 -130.5l-62 62v116l62 62q37 0 62.5 51t25.5 129v25q0 89 -26 147t-62 58l-62 62v116l62 62q14 0 26 43t12 112q0 70 -12 112.5t-18 42.5h-100q-6 0 -18 -42.5
t-12 -137.5v-901q0 -29 50 -29v-90h-440v90q50 1 50 30v900q0 174 108 297t262 123h100z" />
    <glyph glyph-name="agrave" unicode="&#xe0;" 
d="M576 1180h-121l-336 240h313zM407 367l-47 330l-47 -330q16 -7 47 -7t47 7zM452 59l-16 110q-41 -9 -76 -9t-76 9l-16 -110q1 1 32 1v-80h-320v80q35 0 51 19l141 982q-1 -1 -32 -1v80h440v-80q-31 0 -32 1l141 -982q16 -19 51 -19v-80h-320v80q31 0 32 -1z" />
    <glyph glyph-name="aacute" unicode="&#xe1;" 
d="M290 1420h313l-336 -240h-121zM407 367l-47 330l-47 -330q16 -7 47 -7t47 7zM452 59l-16 110q-41 -9 -76 -9t-76 9l-16 -110q1 1 32 1v-80h-320v80q35 0 51 19l141 982q-1 -1 -32 -1v80h440v-80q-31 0 -32 1l141 -982q16 -19 51 -19v-80h-320v80q31 0 32 -1z" />
    <glyph glyph-name="acircumflex" unicode="&#xe2;" 
d="M360 1289l-47 -109h-203l137 320h226l137 -320h-203zM407 367l-47 330l-47 -330q16 -7 47 -7t47 7zM452 59l-16 110q-41 -9 -76 -9t-76 9l-16 -110q1 1 32 1v-80h-320v80q35 0 51 19l141 982q-1 -1 -32 -1v80h440v-80q-31 0 -32 1l141 -982q16 -19 51 -19v-80h-320v80
q31 0 32 -1z" />
    <glyph glyph-name="atilde" unicode="&#xe3;" 
d="M620 1610v-247q-41 -81 -80 -110.5t-80 -29.5t-110 49.5t-97 49.5q-23 0 -52 -25t-107 -183v249q41 82 80 111.5t79 29.5q43 0 112 -50t95 -50q24 0 52.5 25t107.5 181zM407 367l-47 330l-47 -330q16 -7 47 -7t47 7zM452 59l-16 110q-41 -9 -76 -9t-76 9l-16 -110
q1 1 32 1v-80h-320v80q35 0 51 19l141 982q-1 -1 -32 -1v80h440v-80q-31 0 -32 1l141 -982q16 -19 51 -19v-80h-320v80q31 0 32 -1z" />
    <glyph glyph-name="adieresis" unicode="&#xe4;" 
d="M325 1385q35 -35 35 -85t-35 -85t-85 -35t-85 35t-35 85t35 85t85 35t85 -35zM575 1385q35 -35 35 -85t-35 -85t-85 -35t-85 35t-35 85t35 85t85 35t85 -35zM407 367l-47 330l-47 -330q16 -7 47 -7t47 7zM452 59l-16 110q-41 -9 -76 -9t-76 9l-16 -110q1 1 32 1v-80h-320
v80q35 0 51 19l141 982q-1 -1 -32 -1v80h440v-80q-31 0 -32 1l141 -982q16 -19 51 -19v-80h-320v80q31 0 32 -1z" />
    <glyph glyph-name="aring" unicode="&#xe5;" 
d="M408 367l-48 332l-48 -332q18 -7 48 -7t48 7zM487.5 1521.5q52.5 -58.5 52.5 -141.5t-52.5 -141.5t-127.5 -58.5t-127.5 58.5t-52.5 141.5t52.5 141.5t127.5 58.5t127.5 -58.5zM360 1460q-3 0 -11.5 -21.5t-8.5 -58.5t8.5 -58.5t11.5 -21.5t11.5 21.5t8.5 58.5t-8.5 58.5
t-11.5 21.5zM452 59l-16 110q-41 -9 -76 -9t-76 9l-16 -110q1 1 32 1v-80h-320v80q35 0 51 19l141 982q-1 -1 -32 -1v80h440v-80q-31 0 -32 1l141 -982q16 -19 51 -19v-80h-320v80q31 0 32 -1z" />
    <glyph glyph-name="ae" unicode="&#xe6;" horiz-adv-x="1060" 
d="M407 367l-47 330l-47 -330q16 -7 47 -7t47 7zM172 1061q-1 -1 -32 -1v80h700q35 0 87 26q53 -78 95 -252l-82 -82q0 77 -46 108h-194v-240h140q32 0 76 44l64 -32v-224l-64 -32q-44 44 -76 44l-140 1v-321h194q46 31 46 108l82 -82q-42 -174 -95 -252q-52 26 -87 26h-460
v79q39 2 40 22v85q-29 -6 -60 -6q-35 0 -76 10l-16 -111q1 1 32 1v-80h-320v80q35 0 51 19z" />
    <glyph glyph-name="ccedilla" unicode="&#xe7;" horiz-adv-x="700" 
d="M500 -29h1v2zM500 -30v-10q0 -91 -64.5 -155.5t-155.5 -64.5h-88l-52 52v96l52 52h88q9 0 14.5 5.5t5.5 14.5q-127 3 -224 180q-96 175 -96 420t97.5 422.5t242.5 177.5q42 0 106 -10q18 -4 35 -4q30 0 65 21q53 -79 96 -253l-67 -68q-47 94 -75 94h-160
q-17 0 -38.5 -108t-21.5 -272t21.5 -272t38.5 -108h160q28 0 75 94l67 -68q-43 -174 -96 -253q-23 13 -26 17z" />
    <glyph glyph-name="egrave" unicode="&#xe8;" horiz-adv-x="680" 
d="M-20 59q39 2 40 22v959q0 21 -40 21v79h460q35 0 87 26q53 -78 95 -252l-82 -82q0 77 -46 108h-194v-240h140q32 0 76 44l64 -32v-224l-64 -32q-44 44 -76 44l-140 1v-321h194q46 31 46 108l82 -82q-42 -174 -95 -252q-52 26 -87 26h-460v79zM515 1180h-121l-336 240h313
z" />
    <glyph glyph-name="eacute" unicode="&#xe9;" horiz-adv-x="680" 
d="M-20 59q39 2 40 22v959q0 21 -40 21v79h460q35 0 87 26q53 -78 95 -252l-82 -82q0 77 -46 108h-194v-240h140q32 0 76 44l64 -32v-224l-64 -32q-44 44 -76 44l-140 1v-321h194q46 31 46 108l82 -82q-42 -174 -95 -252q-52 26 -87 26h-460v79zM229 1420h313l-336 -240
h-121z" />
    <glyph glyph-name="ecircumflex" unicode="&#xea;" horiz-adv-x="680" 
d="M-20 59q39 2 40 22v959q0 21 -40 21v79h460q35 0 87 26q53 -78 95 -252l-82 -82q0 77 -46 108h-194v-240h140q32 0 76 44l64 -32v-224l-64 -32q-44 44 -76 44l-140 1v-321h194q46 31 46 108l82 -82q-42 -174 -95 -252q-52 26 -87 26h-460v79zM300 1289l-47 -109h-203
l137 320h226l137 -320h-203z" />
    <glyph glyph-name="edieresis" unicode="&#xeb;" horiz-adv-x="680" 
d="M-20 59q39 2 40 22v959q0 21 -40 21v79h460q35 0 87 26q53 -78 95 -252l-82 -82q0 77 -46 108h-194v-240h140q32 0 76 44l64 -32v-224l-64 -32q-44 44 -76 44l-140 1v-321h194q46 31 46 108l82 -82q-42 -174 -95 -252q-52 26 -87 26h-460v79zM264.5 1384.5
q35.5 -35.5 35.5 -84.5t-35.5 -84.5t-84.5 -35.5t-84.5 35.5t-35.5 84.5t35.5 84.5t84.5 35.5t84.5 -35.5zM514.5 1384.5q35.5 -35.5 35.5 -84.5t-35.5 -84.5t-84.5 -35.5t-84.5 35.5t-35.5 84.5t35.5 84.5t84.5 35.5t84.5 -35.5z" />
    <glyph glyph-name="igrave" unicode="&#xec;" horiz-adv-x="400" 
d="M-20 1140h360v-80q-40 0 -40 -20v-960q0 -20 40 -20v-80h-360v80q40 0 40 20v960q0 20 -40 20v80zM355 1180h-121l-336 240h313z" />
    <glyph glyph-name="iacute" unicode="&#xed;" horiz-adv-x="400" 
d="M-20 1140h360v-80q-40 0 -40 -20v-960q0 -20 40 -20v-80h-360v80q40 0 40 20v960q0 20 -40 20v80zM109 1420h313l-336 -240h-121z" />
    <glyph glyph-name="icircumflex" unicode="&#xee;" horiz-adv-x="400" 
d="M-20 1140h360v-80q-40 0 -40 -20v-960q0 -20 40 -20v-80h-360v80q40 0 40 20v960q0 20 -40 20v80zM160 1289l-47 -109h-203l137 320h226l137 -320h-203z" />
    <glyph glyph-name="idieresis" unicode="&#xef;" horiz-adv-x="400" 
d="M-20 1140h360v-80q-40 0 -40 -20v-960q0 -20 40 -20v-80h-360v80q40 0 40 20v960q0 20 -40 20v80zM124 1384.5q35 -35.5 35 -84.5t-35 -84.5t-85 -35.5q-49 0 -84.5 35.5t-35.5 84.5t35.5 84.5t84.5 35.5q50 0 85 -35.5zM374 1384.5q35 -35.5 35 -84.5t-35 -84.5
t-85 -35.5q-49 0 -84.5 35.5t-35.5 84.5t35.5 84.5t84.5 35.5q50 0 85 -35.5z" />
    <glyph glyph-name="eth" unicode="&#xf0;" horiz-adv-x="780" 
d="M20 820v220q0 20 -40 20v80h380q145 0 242.5 -171.5t97.5 -408.5t-97.5 -408.5t-242.5 -171.5h-380v80q39 0 40 20v540h-40v200h40zM300 820h80v-200h-80l1 -440h59q17 0 38.5 108t21.5 272t-21.5 272t-38.5 108l-60 1v-121z" />
    <glyph glyph-name="ntilde" unicode="&#xf1;" 
d="M107 1140h145l168 -308v208q0 20 -41 20l2 80h359v-80q-40 0 -40 -20v-961q0 -19 40 -19v-80h-360v80q40 1 40 20v235l-120 240v-476q0 -19 40 -19v-80h-360v80q40 1 40 20v960q0 20 -41 20l2 80h113v223q41 82 80 111.5t79 29.5q43 0 112 -50t95 -50q24 0 52.5 25
t107.5 181v-247q-41 -81 -80 -110.5t-80 -29.5t-110 49.5t-97 49.5q-23 0 -52 -25q-27 -23 -94 -157z" />
    <glyph glyph-name="ograve" unicode="&#xf2;" horiz-adv-x="720" 
d="M320 940q-17 0 -38.5 -108t-21.5 -272t21.5 -272t38.5 -108t38.5 108t21.5 272t-21.5 272t-38.5 108zM562.5 982.5q97.5 -177.5 97.5 -422.5t-97.5 -422.5t-242.5 -177.5t-242.5 177.5t-97.5 422.5t97.5 422.5t242.5 177.5t242.5 -177.5zM535 1180h-121l-336 240h313z
" />
    <glyph glyph-name="oacute" unicode="&#xf3;" horiz-adv-x="720" 
d="M320 940q-17 0 -38.5 -108t-21.5 -272t21.5 -272t38.5 -108t38.5 108t21.5 272t-21.5 272t-38.5 108zM562.5 982.5q97.5 -177.5 97.5 -422.5t-97.5 -422.5t-242.5 -177.5t-242.5 177.5t-97.5 422.5t97.5 422.5t242.5 177.5t242.5 -177.5zM249 1420h313l-336 -240h-121z
" />
    <glyph glyph-name="ocircumflex" unicode="&#xf4;" horiz-adv-x="720" 
d="M320 940q-17 0 -38.5 -108t-21.5 -272t21.5 -272t38.5 -108t38.5 108t21.5 272t-21.5 272t-38.5 108zM562.5 982.5q97.5 -177.5 97.5 -422.5t-97.5 -422.5t-242.5 -177.5t-242.5 177.5t-97.5 422.5t97.5 422.5t242.5 177.5t242.5 -177.5zM320 1289l-47 -109h-203l137 320
h226l137 -320h-203z" />
    <glyph glyph-name="otilde" unicode="&#xf5;" horiz-adv-x="720" 
d="M320 940q-17 0 -38.5 -108t-21.5 -272t21.5 -272t38.5 -108t38.5 108t21.5 272t-21.5 272t-38.5 108zM562.5 982.5q97.5 -177.5 97.5 -422.5t-97.5 -422.5t-242.5 -177.5t-242.5 177.5t-97.5 422.5t97.5 422.5t242.5 177.5t242.5 -177.5zM586 1612v-249
q-41 -81 -80 -110.5t-79 -29.5q-41 0 -110 49.5t-98 49.5q-23 0 -51.5 -25t-107.5 -181v247q42 82 81 111.5t78 29.5q45 0 113.5 -50t94.5 -50q23 0 52 25t107 183z" />
    <glyph glyph-name="odieresis" unicode="&#xf6;" horiz-adv-x="720" 
d="M320 940q-17 0 -38.5 -108t-21.5 -272t21.5 -272t38.5 -108t38.5 108t21.5 272t-21.5 272t-38.5 108zM562.5 982.5q97.5 -177.5 97.5 -422.5t-97.5 -422.5t-242.5 -177.5t-242.5 177.5t-97.5 422.5t97.5 422.5t242.5 177.5t242.5 -177.5zM285 1385q35 -35 35 -85t-35 -85
t-85 -35t-85 35t-35 85t35 85t85 35t85 -35zM535 1385q35 -35 35 -85t-35 -85t-85 -35t-85 35t-35 85t35 85t85 35t85 -35z" />
    <glyph glyph-name="divide" unicode="&#xf7;" 
d="M-20 870h740v-240h-740v240zM452.5 577.5q42.5 -42.5 42.5 -102.5t-42.5 -102.5t-102.5 -42.5t-102.5 42.5t-42.5 102.5t42.5 102.5t102.5 42.5t102.5 -42.5zM452.5 1127.5q42.5 -42.5 42.5 -102.5t-42.5 -102.5t-102.5 -42.5t-102.5 42.5t-42.5 102.5t42.5 102.5
t102.5 42.5t102.5 -42.5z" />
    <glyph glyph-name="oslash" unicode="&#xf8;" horiz-adv-x="720" 
d="M260 658l90 210q-17 72 -30 72q-17 0 -38.5 -108t-21.5 -174zM184 5l-11 -25h-203l86 200q-76 156 -76 380q0 245 97.5 422.5t242.5 177.5q86 0 136 -45l11 25h203l-86 -200q76 -156 76 -380q0 -245 -97.5 -422.5t-242.5 -177.5q-86 0 -136 45zM380 462l-90 -210
q17 -72 30 -72q17 0 38.5 108t21.5 174z" />
    <glyph glyph-name="ugrave" unicode="&#xf9;" 
d="M420 240v800q0 20 -40 21v79h359v-78q-39 -1 -39 -22v-760q0 -20 20 -20v-44q-107 -236 -361 -236q-252 0 -359 236v44q20 0 20 20v761q0 19 -42 19l4 80l358 1v-80q-40 -1 -40 -21v-800q0 -25 17.5 -42.5t42.5 -17.5t42.5 17.5t17.5 42.5zM575 1180h-121l-336 240h313z
" />
    <glyph glyph-name="uacute" unicode="&#xfa;" 
d="M420 240v800q0 20 -40 21v79h359v-78q-39 -1 -39 -22v-760q0 -20 20 -20v-44q-107 -236 -361 -236q-252 0 -359 236v44q20 0 20 20v761q0 19 -42 19l4 80l358 1v-80q-40 -1 -40 -21v-800q0 -25 17.5 -42.5t42.5 -17.5t42.5 17.5t17.5 42.5zM289 1420h313l-336 -240h-121z
" />
    <glyph glyph-name="ucircumflex" unicode="&#xfb;" 
d="M420 240v800q0 20 -40 21v79h359v-78q-39 -1 -39 -22v-760q0 -20 20 -20v-44q-107 -236 -361 -236q-252 0 -359 236v44q20 0 20 20v761q0 19 -42 19l4 80l358 1v-80q-40 -1 -40 -21v-800q0 -25 17.5 -42.5t42.5 -17.5t42.5 17.5t17.5 42.5zM360 1289l-47 -109h-203
l137 320h226l137 -320h-203z" />
    <glyph glyph-name="udieresis" unicode="&#xfc;" 
d="M420 240v800q0 20 -40 21v79h359v-78q-39 -1 -39 -22v-760q0 -20 20 -20v-44q-107 -236 -361 -236q-252 0 -359 236v44q20 0 20 20v761q0 19 -42 19l4 80l358 1v-80q-40 -1 -40 -21v-800q0 -25 17.5 -42.5t42.5 -17.5t42.5 17.5t17.5 42.5zM325 1385q35 -35 35 -85
t-35 -85t-85 -35t-85 35t-35 85t35 85t85 35t85 -35zM575 1385q35 -35 35 -85t-35 -85t-85 -35t-85 35t-35 85t35 85t85 35t85 -35z" />
    <glyph glyph-name="yacute" unicode="&#xfd;" horiz-adv-x="820" 
d="M289 1420h313l-336 -240h-121zM447 1063q-3 -3 -27 -3v80h320v-80q-43 0 -69 -46l-172 -617v-317q0 -20 41 -20v-80h-360v80q40 0 41 20v318l-174 618q-25 44 -67 44v80h60l221 1v-1h39v-80q-25 0 -28 2l87 -341z" />
    <glyph glyph-name="thorn" unicode="&#xfe;" horiz-adv-x="740" 
d="M300 780v-400h20q19 0 39.5 56.5t20.5 143.5t-20.5 143.5t-39.5 56.5h-20zM300 180v-101q0 -19 40 -19v-80h-360v80q40 1 40 20v960q0 20 -41 20l2 80h359v-80q-40 0 -40 -20v-60h20q142 0 241 -117.5t99 -282.5t-99 -282.5t-241 -117.5h-20z" />
    <glyph glyph-name="ydieresis" unicode="&#xff;" horiz-adv-x="820" 
d="M325 1385q35 -35 35 -85t-35 -85t-85 -35t-85 35t-35 85t35 85t85 35t85 -35zM575 1385q35 -35 35 -85t-35 -85t-85 -35t-85 35t-35 85t35 85t85 35t85 -35zM447 1063q-3 -3 -27 -3v80h320v-80q-43 0 -69 -46l-172 -617v-317q0 -20 41 -20v-80h-360v80q40 0 41 20v318
l-174 618q-25 44 -67 44v80h60l221 1v-1h39v-80q-25 0 -28 2l87 -341z" />
    <glyph glyph-name="dotlessi" unicode="&#x131;" horiz-adv-x="399" 
d="M-20 1140h360v-80q-40 0 -40 -20v-960q0 -20 40 -20v-80h-360v80q40 0 40 20v960q0 20 -40 20v80z" />
    <glyph glyph-name="OE" unicode="&#x152;" horiz-adv-x="1300" 
d="M400 1180q-25 0 -52.5 -137.5t-27.5 -342.5t27.5 -342.5t52.5 -137.5t52.5 137.5t27.5 342.5t-27.5 342.5t-52.5 137.5zM513 -20q-51 -25 -113 -25q-178 0 -299 220t-121 525t121 525t299 220q62 0 113 -25h487q45 0 107 31q63 -93 115 -307l-92 -92q0 87 -61 128h-249
v-310h180q42 0 96 54l74 -37v-274l-74 -37q-54 54 -96 54l-180 1v-411h249q61 41 61 128l92 -92q-52 -214 -115 -307q-62 31 -107 31h-487z" />
    <glyph glyph-name="oe" unicode="&#x153;" horiz-adv-x="1040" 
d="M320 940q-17 0 -38.5 -108t-21.5 -272t21.5 -272t38.5 -108t38.5 108t21.5 272t-21.5 272t-38.5 108zM411 -20q-40 -20 -91 -20q-145 0 -242.5 177.5t-97.5 422.5t97.5 422.5t242.5 177.5q51 0 91 -20h389q35 0 87 26q53 -78 95 -252l-82 -82q0 77 -46 108h-194v-240h140
q32 0 76 44l64 -32v-224l-64 -32q-44 44 -76 44l-140 1v-321h194q46 31 46 108l82 -82q-42 -174 -95 -252q-52 26 -87 26h-389z" />
    <glyph glyph-name="circumflex" unicode="&#x2c6;" horiz-adv-x="650" 
d="M275 1624l-62 -144h-243l167 390h276l167 -390h-243z" />
    <glyph glyph-name="caron" unicode="&#x2c7;" horiz-adv-x="650" 
d="M275 1726l62 144h243l-167 -390h-276l-167 390h243z" />
    <glyph glyph-name="uni02C9" unicode="&#x2c9;" horiz-adv-x="1024" 
d="M234 1175v165h556v-165h-556z" />
    <glyph glyph-name="breve" unicode="&#x2d8;" horiz-adv-x="1024" 
d="M196 1369h90q19 -80 70.5 -110.5t155.5 -30.5t154.5 30t69.5 111h90q-24 -163 -103.5 -236.5t-210.5 -73.5q-130 0 -210.5 74t-105.5 236z" />
    <glyph glyph-name="dotaccent" unicode="&#x2d9;" horiz-adv-x="1024" 
d="M408 1303l69 72q9 9 19.5 13.5t21.5 4.5q10 0 20.5 -4.5t18.5 -13.5l71 -75q8 -7 11.5 -17.5t3.5 -22.5q-1 -12 -4.5 -21.5t-12.5 -18.5l-71 -76q-14 -13 -21 -17.5t-16 -4.5q-14 0 -25 4.5t-18 14.5l-74 85q-6 7 -9.5 16t-3.5 21q0 10 5 20.5t15 19.5z" />
    <glyph glyph-name="ring" unicode="&#x2da;" horiz-adv-x="1024" 
d="M431 1257q0 -34 23 -57t57 -23t57 23t23 57q0 32 -23.5 55.5t-56.5 23.5t-56.5 -23.5t-23.5 -55.5zM315 1257q0 83 57 140t139 57q84 0 141.5 -57.5t57.5 -139.5q0 -83 -57.5 -140.5t-141.5 -57.5q-82 0 -139 57.5t-57 140.5z" />
    <glyph glyph-name="ogonek" unicode="&#x2db;" horiz-adv-x="500" 
d="M228.5 -28.5q-8.5 -8.5 -8.5 -21.5t8.5 -21.5t21.5 -8.5h108l62 -62v-116l-62 -62h-108q-112 0 -191 79t-79 191t79 191t211 79v-240q-33 0 -41.5 -8.5z" />
    <glyph glyph-name="tilde" unicode="&#x2dc;" horiz-adv-x="700" 
d="M620 1985v-287q-50 -99 -97 -135t-95 -36q-50 0 -135 61.5t-121 61.5q-30 0 -66.5 -32t-125.5 -210v287q50 100 97.5 136.5t94.5 36.5q53 0 138 -62.5t118 -62.5q30 0 66.5 32t125.5 210z" />
    <glyph glyph-name="hungarumlaut" unicode="&#x2dd;" horiz-adv-x="1024" 
d="M184 1059l159 302q26 48 51.5 70.5t58.5 22.5q36 0 62 -26t26 -61q0 -21 -12.5 -43.5t-33.5 -46.5l-212 -218h-99zM469 1059l159 302q26 48 51.5 70.5t58.5 22.5q36 0 62 -26t26 -61q0 -21 -12.5 -43.5t-33.5 -46.5l-212 -218h-99z" />
    <glyph glyph-name="endash" unicode="&#x2013;" horiz-adv-x="900" 
d="M-20 870h840v-240h-840v240z" />
    <glyph glyph-name="emdash" unicode="&#x2014;" horiz-adv-x="1000" 
d="M-20 870h940v-240h-940v240z" />
    <glyph glyph-name="quoteleft" unicode="&#x2018;" horiz-adv-x="350" 
d="M175 1366q15 -1 53 -38q42 -43 42 -103t-42.5 -102.5t-102.5 -42.5t-102.5 42.5t-42.5 102.5q0 187 224 299l77 -77q-92 -62 -106 -81z" />
    <glyph glyph-name="quoteright" unicode="&#x2019;" horiz-adv-x="350" 
d="M75 1184q-15 1 -52 39q-43 42 -43 102t42.5 102.5t102.5 42.5t102.5 -42.5t42.5 -102.5q0 -187 -224 -299l-77 77q92 62 106 81z" />
    <glyph glyph-name="quotesinglbase" unicode="&#x201a;" horiz-adv-x="350" 
d="M75 -16q-15 1 -52 39q-43 42 -43 102t42.5 102.5t102.5 42.5t102.5 -42.5t42.5 -102.5q0 -187 -224 -299l-77 77q92 62 106 81z" />
    <glyph glyph-name="quotedblleft" unicode="&#x201c;" horiz-adv-x="650" 
d="M475 1366q15 -1 53 -38q42 -43 42 -103t-42.5 -102.5t-102.5 -42.5t-102.5 42.5t-42.5 102.5q0 187 224 299l77 -77q-92 -62 -106 -81zM175 1366q15 -1 53 -38q42 -43 42 -103t-42.5 -102.5t-102.5 -42.5t-102.5 42.5t-42.5 102.5q0 187 224 299l77 -77q-92 -62 -106 -81
z" />
    <glyph glyph-name="quotedblright" unicode="&#x201d;" horiz-adv-x="650" 
d="M75 1234q-15 1 -52 39q-43 42 -43 102t42.5 102.5t102.5 42.5t102.5 -42.5t42.5 -102.5q0 -187 -224 -299l-77 77q92 62 106 81zM375 1234q-15 1 -52 39q-43 42 -43 102t42.5 102.5t102.5 42.5t102.5 -42.5t42.5 -102.5q0 -187 -224 -299l-77 77q92 62 106 81z" />
    <glyph glyph-name="quotedblbase" unicode="&#x201e;" horiz-adv-x="650" 
d="M75 -16q-15 1 -52 39q-43 42 -43 102t42.5 102.5t102.5 42.5t102.5 -42.5t42.5 -102.5q0 -187 -224 -299l-77 77q92 62 106 81zM375 -16q-15 1 -52 39q-43 42 -43 102t42.5 102.5t102.5 42.5t102.5 -42.5t42.5 -102.5q0 -187 -224 -299l-77 77q92 62 106 81z" />
    <glyph glyph-name="dagger" unicode="&#x2020;" horiz-adv-x="1014" 
d="M464 1044q-6 69 -49 146q-60 106 -60 139q0 58 42.5 93t109.5 35q64 0 108 -32.5t44 -86.5q0 -37 -57 -146q-44 -82 -51 -148q68 6 145 49q106 60 139 60q58 0 93.5 -42.5t35.5 -109.5q0 -64 -32.5 -108t-87.5 -44q-37 0 -145 57q-82 45 -149 52q7 -144 111 -248
q-108 -468 -114 -1000h-78q-6 532 -116 1000q104 104 112 249q-69 -7 -147 -50q-106 -60 -139 -60q-58 0 -93 42.5t-35 109.5q0 64 32.5 108t86.5 44q37 0 146 -58q82 -44 148 -51z" />
    <glyph glyph-name="daggerdbl" unicode="&#x2021;" horiz-adv-x="1014" 
d="M549 209q67 7 149 52q108 57 145 57q55 0 87.5 -44t32.5 -108q0 -67 -35.5 -109.5t-93.5 -42.5q-33 0 -139 60q-77 43 -145 49q7 -66 51 -148q57 -109 57 -146q0 -54 -44 -86.5t-108 -32.5q-67 0 -109.5 35t-42.5 93q0 33 60 139q43 77 49 146q-66 -7 -148 -51
q-109 -58 -146 -58q-54 0 -86.5 44t-32.5 108q0 67 35 109.5t93 42.5q33 0 139 -60q78 -43 147 -50q-8 198 -113 376q105 177 113 375q-69 -7 -147 -50q-106 -60 -139 -60q-58 0 -93 42.5t-35 109.5q0 64 32.5 108t86.5 44q37 0 146 -58q82 -44 148 -51q-6 69 -49 146
q-60 106 -60 139q0 58 42.5 93t109.5 35q64 0 108 -32.5t44 -86.5q0 -37 -57 -146q-44 -82 -51 -148q68 6 145 49q106 60 139 60q58 0 93.5 -42.5t35.5 -109.5q0 -64 -32.5 -108t-87.5 -44q-37 0 -145 57q-82 45 -149 52q7 -197 112 -374q-105 -178 -112 -375z" />
    <glyph glyph-name="bullet" unicode="&#x2022;" horiz-adv-x="1024" 
d="M196 718q0 131 93 223t224 92q130 0 222.5 -92.5t92.5 -222.5t-93.5 -223.5t-223.5 -93.5q-131 0 -223 93t-92 224z" />
    <glyph glyph-name="ellipsis" unicode="&#x2026;" horiz-adv-x="950" 
d="M227.5 227.5q42.5 -42.5 42.5 -102.5t-42.5 -102.5t-102.5 -42.5t-102.5 42.5t-42.5 102.5t42.5 102.5t102.5 42.5t102.5 -42.5zM527.5 227.5q42.5 -42.5 42.5 -102.5t-42.5 -102.5t-102.5 -42.5t-102.5 42.5t-42.5 102.5t42.5 102.5t102.5 42.5t102.5 -42.5z
M827.5 227.5q42.5 -42.5 42.5 -102.5t-42.5 -102.5t-102.5 -42.5t-102.5 42.5t-42.5 102.5t42.5 102.5t102.5 42.5t102.5 -42.5z" />
    <glyph glyph-name="perthousand" unicode="&#x2030;" horiz-adv-x="1600" 
d="M350 1130q-7 0 -18.5 -35.5t-11.5 -94.5t11.5 -94.5t18.5 -35.5t18.5 35.5t11.5 94.5t-11.5 94.5t-18.5 35.5zM750 530q-7 0 -18.5 -35.5t-11.5 -94.5t11.5 -94.5t18.5 -35.5t18.5 35.5t11.5 94.5t-11.5 94.5t-18.5 35.5zM1150 530q-7 0 -18.5 -35.5t-11.5 -94.5
t11.5 -94.5t18.5 -35.5t18.5 35.5t11.5 94.5t-11.5 94.5t-18.5 35.5zM398 631q-3 -1 -48 -1q-153 0 -261.5 108.5t-108.5 261.5t108.5 261.5t261.5 108.5t262 -108q35 -36 39 -42l86 200h243l-278 -651q3 1 48 1q119 0 200 -57q81 57 200 57q153 0 261.5 -108.5
t108.5 -261.5t-108.5 -261.5t-261.5 -108.5q-119 0 -200 57q-81 -57 -200 -57q-153 0 -261 109q-36 34 -40 41l-86 -200h-243z" />
    <glyph glyph-name="guilsinglleft" unicode="&#x2039;" 
d="M284 750l436 -187v-243l-740 317v226l740 317v-243z" />
    <glyph glyph-name="guilsinglright" unicode="&#x203a;" 
d="M-20 937v243l740 -317v-226l-740 -317v243l436 187z" />
    <glyph glyph-name="fraction" unicode="&#x2044;" horiz-adv-x="900" 
d="M213 -20h-243l617 1440h243z" />
    <glyph glyph-name="fraction" unicode="&#x2215;" horiz-adv-x="900" 
d="M213 -20h-243l617 1440h243z" />
    <glyph glyph-name="franc" unicode="&#x20a3;" horiz-adv-x="850" 
d="M30 220v1080q0 31 -50 31v89h570q45 0 107 31q63 -93 115 -307l-92 -92q0 87 -61 128h-249v-310h180q42 0 96 54l74 -37v-274l-74 -37q-54 54 -96 54l-180 1v-411h200v-240h-200v-80q0 -30 50 -30v-90h-440v90q49 1 50 31v79h-50v240h50z" />
    <glyph glyph-name="lira" unicode="&#x20a4;" horiz-adv-x="950" 
d="M370 430v-210h349q61 41 61 128l92 -92q-52 -214 -115 -307q-62 31 -107 31h-670v90q49 1 50 31v329h-50v240h50v80q0 52 2 80h-52v240h89q26 102 80 203q123 222 301 222q54 0 84 -13q21 -4 42 -4q39 0 80 24q63 -94 116 -308l-77 -78q-57 114 -95 114h-150
q-25 0 -50 -130q-6 -26 -7 -30h327v-240h-349q-1 -28 -1 -80v-80h350v-240h-350z" />
    <glyph glyph-name="peseta" unicode="&#x20a7;" horiz-adv-x="900" 
d="M370 1180v-510h30q27 0 53.5 72.5t26.5 182.5t-26.5 182.5t-53.5 72.5h-30zM30 220v1080q0 30 -50 30l1 90h419q175 0 297.5 -145.5t122.5 -349.5t-122.5 -349.5t-297.5 -145.5h-30v-210h200v-240h-200v-81q0 -29 50 -29v-90h-440v90q50 1 50 30v80h-50v240h50z" />
    <glyph glyph-name="Euro" unicode="&#x20ac;" horiz-adv-x="950" 
d="M454 1070h266v-240h-297q-3 -52 -3 -130v-30h300v-240h-284q4 -32 14 -79q25 -131 50 -131h200q38 0 95 114l77 -78q-53 -214 -116 -308q-41 24 -80 24q-21 0 -45 -5q-79 -12 -131 -12q-178 0 -301 223q-66 120 -92 252h-127v240h100v30q0 79 6 130h-106v240h153
q24 75 66 153q123 222 301 222q52 0 131 -12q24 -5 45 -5q39 0 80 24q63 -94 116 -308l-77 -78q-57 114 -95 114h-200q-23 0 -46 -110z" />
    <glyph glyph-name="uni2116" unicode="&#x2116;" horiz-adv-x="975" 
d="M255 1249v101q0 5 -26 5l3 65h238v-65q-25 0 -25 -5v-600q0 -5 25 -5v-65h-240v64q25 1 25 6v145l-60 120v-265q0 -5 25 -5v-65h-240v64q25 1 25 6v600q0 5 -26 5l3 65h180zM675 1280q-4 0 -17 -64t-13 -166q0 -101 13 -165.5t17 -64.5q5 0 17.5 64.5t12.5 165.5
q0 102 -12.5 166t-17.5 64zM832.5 1319q62.5 -114 62.5 -269t-62.5 -268.5t-157.5 -113.5t-157.5 113.5t-62.5 268.5t62.5 269t157.5 114t157.5 -114z" />
    <glyph glyph-name="trademark" unicode="&#x2122;" horiz-adv-x="1125" 
d="M100 1420h200q20 0 57 18q37 -55 65 -169l-65 -65q-3 58 -27 76h-35v-530q0 -5 25 -5v-65h-240v65q25 0 25 5v530h-37q-23 -16 -23 -78l-67 67q28 114 65 170q37 -19 57 -19zM725 805l-105 210v-265q0 -5 25 -5v-65h-240v65q26 0 26 6l-1 599q0 5 -26 5l3 65h214l-1 -65
l105 -210l105 210v65h215v-65q-25 0 -25 -5v-599q0 -6 25 -6v-65h-240v65q25 0 25 5l1 265z" />
    <glyph glyph-name="partialdiff" unicode="&#x2202;" horiz-adv-x="1650" 
d="M0 200v1100q0 200 200 200h1100q200 0 200 -200v-1100q0 -200 -200 -200h-1100q-200 0 -200 200zM1475 201v1099q0 175 -175 175h-1100q-174 0 -175 -175v-1100q1 -175 175 -175h1101q174 0 174 176z" />
    <glyph glyph-name="Delta" unicode="&#x2206;" horiz-adv-x="1650" 
d="M0 200v1100q0 200 200 200h1100q200 0 200 -200v-1100q0 -200 -200 -200h-1100q-200 0 -200 200zM1475 201v1099q0 175 -175 175h-1100q-174 0 -175 -175v-1100q1 -175 175 -175h1101q174 0 174 176z" />
    <glyph glyph-name="product" unicode="&#x220f;" horiz-adv-x="1650" 
d="M0 200v1100q0 200 200 200h1100q200 0 200 -200v-1100q0 -200 -200 -200h-1100q-200 0 -200 200zM1475 201v1099q0 175 -175 175h-1100q-174 0 -175 -175v-1100q1 -175 175 -175h1101q174 0 174 176z" />
    <glyph glyph-name="summation" unicode="&#x2211;" horiz-adv-x="1650" 
d="M0 200v1100q0 200 200 200h1100q200 0 200 -200v-1100q0 -200 -200 -200h-1100q-200 0 -200 200zM1475 201v1099q0 175 -175 175h-1100q-174 0 -175 -175v-1100q1 -175 175 -175h1101q174 0 174 176z" />
    <glyph glyph-name="minus" unicode="&#x2212;" 
d="M-20 870h740v-240h-740v240z" />
    <glyph glyph-name="approxequal" unicode="&#x2248;" horiz-adv-x="1650" 
d="M0 200v1100q0 200 200 200h1100q200 0 200 -200v-1100q0 -200 -200 -200h-1100q-200 0 -200 200zM1475 201v1099q0 175 -175 175h-1100q-174 0 -175 -175v-1100q1 -175 175 -175h1101q174 0 174 176z" />
    <glyph glyph-name="lessequal" unicode="&#x2264;" horiz-adv-x="1650" 
d="M0 200v1100q0 200 200 200h1100q200 0 200 -200v-1100q0 -200 -200 -200h-1100q-200 0 -200 200zM1475 201v1099q0 175 -175 175h-1100q-174 0 -175 -175v-1100q1 -175 175 -175h1101q174 0 174 176z" />
    <glyph glyph-name="greaterequal" unicode="&#x2265;" horiz-adv-x="1650" 
d="M0 200v1100q0 200 200 200h1100q200 0 200 -200v-1100q0 -200 -200 -200h-1100q-200 0 -200 200zM1475 201v1099q0 175 -175 175h-1100q-174 0 -175 -175v-1100q1 -175 175 -175h1101q174 0 174 176z" />
    <glyph glyph-name="uniF001" unicode="&#xf001;" horiz-adv-x="1073" 
 />
    <glyph glyph-name="uniF001" unicode="&#xfb01;" horiz-adv-x="1073" 
 />
    <glyph glyph-name="uniF002" unicode="&#xf002;" horiz-adv-x="1081" 
 />
    <glyph glyph-name="uniF002" unicode="&#xfb02;" horiz-adv-x="1081" 
 />
    </font>
</defs>
</svg>
